{"glyphs":{"0":{"ha":556,"x_min":0,"x_max":0,"o":"m 278 -14 b 510 231 428 -14 510 75 l 510 742 b 278 986 510 897 428 986 b 46 742 128 986 46 897 l 46 231 b 278 -14 46 75 128 -14 z m 278 125 b 199 221 229 125 199 151 l 199 751 b 278 847 199 821 229 847 b 357 751 326 847 357 821 l 357 221 b 278 125 357 151 326 125 z "},"1":{"ha":556,"x_min":0,"x_max":0,"o":"m 271 0 l 424 0 l 424 972 l 321 972 b 111 850 286 878 240 850 l 111 742 l 271 742 z "},"2":{"ha":556,"x_min":0,"x_max":0,"o":"m 54 0 l 496 0 l 496 139 l 206 139 l 206 160 b 321 374 206 228 229 276 b 510 742 463 524 510 626 b 282 986 510 897 432 986 b 54 742 132 986 54 897 l 54 647 l 199 647 l 199 751 b 278 847 199 821 229 847 b 357 736 326 847 357 824 b 207 449 357 646 324 572 b 54 106 93 329 54 244 z "},"3":{"ha":556,"x_min":0,"x_max":0,"o":"m 274 -14 b 501 226 424 -14 501 71 l 501 313 b 389 513 501 411 471 482 l 389 515 b 497 711 464 543 497 607 l 497 746 b 274 986 497 901 419 986 b 50 744 128 986 50 900 l 50 693 l 194 693 l 194 757 b 268 847 194 821 224 847 b 344 750 313 847 344 819 l 344 679 b 253 576 344 601 310 576 l 197 576 l 197 438 l 249 438 b 349 314 318 438 349 404 l 349 235 b 269 125 349 149 318 125 b 190 221 221 125 190 151 l 190 307 l 46 307 l 46 228 b 274 -14 46 72 124 -14 z "},"4":{"ha":556,"x_min":0,"x_max":0,"o":"m 313 0 l 465 0 l 465 176 l 538 176 l 538 315 l 465 315 l 465 972 l 299 972 l 21 315 l 21 176 l 313 176 z m 160 315 l 310 694 l 313 694 l 313 315 z "},"5":{"ha":556,"x_min":0,"x_max":0,"o":"m 281 -14 b 508 231 431 -14 508 75 l 508 450 b 339 672 508 593 451 672 b 207 601 278 672 235 647 l 204 601 l 217 833 l 483 833 l 483 972 l 81 972 l 53 429 l 197 429 l 197 438 b 276 533 197 507 228 533 b 356 438 325 533 356 507 l 356 219 b 276 125 356 150 325 125 b 197 219 228 125 197 150 l 197 307 l 53 307 l 53 231 b 281 -14 53 75 131 -14 z "},"6":{"ha":556,"x_min":0,"x_max":0,"o":"m 282 -14 b 514 231 432 -14 514 75 l 514 404 b 344 626 514 547 457 626 b 206 542 276 626 232 597 l 203 542 l 203 728 b 288 847 203 821 233 847 b 367 751 336 847 367 821 l 367 724 l 511 724 l 511 742 b 283 986 511 897 433 986 b 50 733 125 986 50 897 l 50 231 b 282 -14 50 75 132 -14 z m 282 125 b 203 219 229 125 203 156 l 203 392 b 282 488 203 457 229 488 b 361 392 335 488 361 457 l 361 219 b 282 125 361 156 335 125 z "},"7":{"ha":556,"x_min":0,"x_max":0,"o":"m 111 0 l 267 0 l 506 839 l 506 972 l 47 972 l 47 833 l 356 833 z "},"8":{"ha":556,"x_min":0,"x_max":0,"o":"m 278 -14 b 517 226 432 -14 517 71 l 517 313 b 417 511 517 406 489 474 l 417 514 b 511 706 479 549 511 610 l 511 746 b 278 986 511 901 426 986 b 44 746 129 986 44 901 l 44 706 b 139 514 44 610 75 549 l 139 511 b 39 313 67 474 39 406 l 39 226 b 278 -14 39 71 124 -14 z m 278 576 b 197 674 225 576 197 610 l 197 750 b 278 847 197 814 225 847 b 358 750 331 847 358 814 l 358 674 b 278 576 358 610 331 576 z m 278 125 b 192 235 221 125 192 161 l 192 328 b 278 438 192 401 221 438 b 364 328 335 438 364 401 l 364 235 b 278 125 364 161 335 125 z "},"9":{"ha":556,"x_min":0,"x_max":0,"o":"m 272 -14 b 506 239 431 -14 506 75 l 506 742 b 274 986 506 897 424 986 b 42 742 124 986 42 897 l 42 568 b 211 346 42 425 99 346 b 350 431 279 346 324 375 l 353 431 l 353 244 b 268 125 353 151 322 125 b 189 221 219 125 189 151 l 189 249 l 44 249 l 44 231 b 272 -14 44 75 122 -14 z m 274 485 b 194 581 221 485 194 515 l 194 753 b 274 847 194 817 221 847 b 353 753 326 847 353 817 l 353 581 b 274 485 353 515 326 485 z "}," ":{"ha":222,"x_min":0,"x_max":0,"o":""},"A":{"ha":557,"x_min":0,"x_max":0,"o":"m 17 0 l 158 0 l 186 190 l 360 190 l 360 193 l 388 0 l 540 0 l 382 972 l 175 972 z m 204 322 l 271 803 l 274 803 l 342 322 z "},"Á":{"ha":557,"x_min":0,"x_max":0,"o":"m 196 1038 l 311 1038 l 460 1197 l 293 1197 z m 17 0 l 158 0 l 186 190 l 360 190 l 360 193 l 388 0 l 540 0 l 382 972 l 175 972 z m 204 322 l 271 803 l 274 803 l 342 322 z "},"Ă":{"ha":557,"x_min":0,"x_max":0,"o":"m 278 1032 b 443 1197 382 1032 440 1094 l 353 1197 b 278 1131 346 1144 318 1131 b 206 1197 239 1131 213 1144 l 115 1197 b 278 1032 119 1094 174 1032 z m 17 0 l 158 0 l 186 190 l 360 190 l 360 193 l 388 0 l 540 0 l 382 972 l 175 972 z m 204 322 l 271 803 l 274 803 l 342 322 z "},"Â":{"ha":557,"x_min":0,"x_max":0,"o":"m 93 1038 l 208 1038 l 279 1114 l 350 1038 l 465 1038 l 351 1197 l 207 1197 z m 17 0 l 158 0 l 186 190 l 360 190 l 360 193 l 388 0 l 540 0 l 382 972 l 175 972 z m 204 322 l 271 803 l 274 803 l 342 322 z "},"Ä":{"ha":557,"x_min":0,"x_max":0,"o":"m 104 1038 l 240 1038 l 240 1179 l 104 1179 z m 318 1038 l 454 1038 l 454 1179 l 318 1179 z m 17 0 l 158 0 l 186 190 l 360 190 l 360 193 l 388 0 l 540 0 l 382 972 l 175 972 z m 204 322 l 271 803 l 274 803 l 342 322 z "},"À":{"ha":557,"x_min":0,"x_max":0,"o":"m 247 1038 l 363 1038 l 265 1197 l 99 1197 z m 17 0 l 158 0 l 186 190 l 360 190 l 360 193 l 388 0 l 540 0 l 382 972 l 175 972 z m 204 322 l 271 803 l 274 803 l 342 322 z "},"Ā":{"ha":557,"x_min":0,"x_max":0,"o":"m 119 1050 l 439 1050 l 439 1158 l 119 1158 z m 17 0 l 158 0 l 186 190 l 360 190 l 360 193 l 388 0 l 540 0 l 382 972 l 175 972 z m 204 322 l 271 803 l 274 803 l 342 322 z "},"Ą":{"ha":557,"x_min":0,"x_max":0,"o":"m 442 -81 b 483 0 442 -61 449 -29 l 540 0 l 382 972 l 175 972 l 17 0 l 158 0 l 186 190 l 360 190 l 360 193 l 388 0 l 418 0 b 324 -118 354 -32 324 -74 b 446 -204 324 -175 371 -204 b 540 -189 485 -204 508 -201 l 540 -111 b 490 -119 525 -115 518 -119 b 442 -81 465 -119 442 -107 z m 204 322 l 271 803 l 274 803 l 342 322 z "},"Å":{"ha":557,"x_min":0,"x_max":0,"o":"m 279 1022 b 403 1144 350 1022 403 1076 b 279 1267 403 1213 350 1267 b 156 1144 208 1267 156 1213 b 279 1022 156 1076 208 1022 z m 279 1096 b 235 1144 254 1096 235 1115 b 279 1193 235 1174 254 1193 b 324 1144 304 1193 324 1174 b 279 1096 324 1115 304 1096 z m 17 0 l 158 0 l 186 190 l 360 190 l 360 193 l 388 0 l 540 0 l 382 972 l 175 972 z m 204 322 l 271 803 l 274 803 l 342 322 z "},"Ã":{"ha":557,"x_min":0,"x_max":0,"o":"m 160 1032 b 215 1086 178 1071 193 1086 b 263 1068 232 1086 246 1078 b 346 1042 283 1056 308 1042 b 472 1158 399 1042 438 1081 l 399 1203 b 343 1149 381 1164 365 1149 b 296 1167 326 1149 313 1157 b 213 1193 275 1179 250 1193 b 86 1076 160 1193 121 1154 z m 17 0 l 158 0 l 186 190 l 360 190 l 360 193 l 388 0 l 540 0 l 382 972 l 175 972 z m 204 322 l 271 803 l 274 803 l 342 322 z "},"Æ":{"ha":806,"x_min":0,"x_max":0,"o":"m 14 0 l 160 0 l 208 190 l 358 190 l 358 0 l 775 0 l 775 139 l 511 139 l 511 438 l 721 438 l 721 576 l 511 576 l 511 833 l 775 833 l 775 972 l 274 972 z m 242 322 l 356 785 l 358 785 l 358 322 z "},"Ǽ":{"ha":806,"x_min":0,"x_max":0,"o":"m 317 1038 l 432 1038 l 581 1197 l 414 1197 z m 14 0 l 160 0 l 208 190 l 358 190 l 358 0 l 775 0 l 775 139 l 511 139 l 511 438 l 721 438 l 721 576 l 511 576 l 511 833 l 775 833 l 775 972 l 274 972 z m 242 322 l 356 785 l 358 785 l 358 322 z "},"B":{"ha":561,"x_min":0,"x_max":0,"o":"m 57 0 l 297 0 b 529 231 450 0 529 81 l 529 314 b 415 517 529 417 497 489 l 415 519 b 514 710 483 547 514 610 l 514 749 b 288 972 514 899 446 972 l 57 972 z m 210 576 l 210 833 l 283 833 b 361 733 338 833 361 803 l 361 679 b 269 576 361 601 326 576 z m 210 139 l 210 438 l 278 438 b 376 319 347 438 376 410 l 376 235 b 297 139 376 163 349 139 z "},"Ḃ":{"ha":561,"x_min":0,"x_max":0,"o":"m 196 1038 l 335 1038 l 335 1179 l 196 1179 z m 57 0 l 297 0 b 529 231 450 0 529 81 l 529 314 b 415 517 529 417 497 489 l 415 519 b 514 710 483 547 514 610 l 514 749 b 288 972 514 899 446 972 l 57 972 z m 210 576 l 210 833 l 283 833 b 361 733 338 833 361 803 l 361 679 b 269 576 361 601 326 576 z m 210 139 l 210 438 l 278 438 b 376 319 347 438 376 410 l 376 235 b 297 139 376 163 349 139 z "},"C":{"ha":532,"x_min":0,"x_max":0,"o":"m 272 -14 b 497 225 419 -14 497 75 l 497 363 l 353 363 l 353 214 b 276 125 353 150 322 125 b 200 214 231 125 200 150 l 200 757 b 276 847 200 821 231 847 b 353 757 322 847 353 821 l 353 644 l 497 644 l 497 747 b 272 986 497 897 419 986 b 47 747 125 986 47 897 l 47 225 b 272 -14 47 75 125 -14 z "},"Ć":{"ha":532,"x_min":0,"x_max":0,"o":"m 185 1038 l 300 1038 l 449 1197 l 282 1197 z m 272 -14 b 497 225 419 -14 497 75 l 497 363 l 353 363 l 353 214 b 276 125 353 150 322 125 b 200 214 231 125 200 150 l 200 757 b 276 847 200 821 231 847 b 353 757 322 847 353 821 l 353 644 l 497 644 l 497 747 b 272 986 497 897 419 986 b 47 747 125 986 47 897 l 47 225 b 272 -14 47 75 125 -14 z "},"Č":{"ha":532,"x_min":0,"x_max":0,"o":"m 196 1038 l 340 1038 l 454 1197 l 339 1197 l 268 1121 l 197 1197 l 82 1197 z m 272 -14 b 497 225 419 -14 497 75 l 497 363 l 353 363 l 353 214 b 276 125 353 150 322 125 b 200 214 231 125 200 150 l 200 757 b 276 847 200 821 231 847 b 353 757 322 847 353 821 l 353 644 l 497 644 l 497 747 b 272 986 497 897 419 986 b 47 747 125 986 47 897 l 47 225 b 272 -14 47 75 125 -14 z "},"Ç":{"ha":532,"x_min":0,"x_max":0,"o":"m 497 644 l 497 747 b 272 986 497 897 419 986 b 47 747 125 986 47 897 l 47 225 b 240 -12 47 86 114 0 l 240 -79 l 247 -79 b 299 -115 282 -79 299 -89 b 263 -149 299 -139 288 -149 b 232 -121 247 -149 232 -142 l 232 -110 l 129 -110 l 129 -124 b 263 -204 129 -187 186 -204 b 404 -119 346 -204 404 -194 b 308 -54 404 -71 369 -54 l 308 -12 b 497 225 432 1 497 88 l 497 363 l 353 363 l 353 214 b 276 125 353 150 322 125 b 200 214 231 125 200 150 l 200 757 b 276 847 200 821 231 847 b 353 757 322 847 353 821 l 353 644 z "},"Ĉ":{"ha":532,"x_min":0,"x_max":0,"o":"m 82 1038 l 197 1038 l 268 1114 l 339 1038 l 454 1038 l 340 1197 l 196 1197 z m 272 -14 b 497 225 419 -14 497 75 l 497 363 l 353 363 l 353 214 b 276 125 353 150 322 125 b 200 214 231 125 200 150 l 200 757 b 276 847 200 821 231 847 b 353 757 322 847 353 821 l 353 644 l 497 644 l 497 747 b 272 986 497 897 419 986 b 47 747 125 986 47 897 l 47 225 b 272 -14 47 75 125 -14 z "},"Ċ":{"ha":532,"x_min":0,"x_max":0,"o":"m 199 1038 l 338 1038 l 338 1179 l 199 1179 z m 272 -14 b 497 225 419 -14 497 75 l 497 363 l 353 363 l 353 214 b 276 125 353 150 322 125 b 200 214 231 125 200 150 l 200 757 b 276 847 200 821 231 847 b 353 757 322 847 353 821 l 353 644 l 497 644 l 497 747 b 272 986 497 897 419 986 b 47 747 125 986 47 897 l 47 225 b 272 -14 47 75 125 -14 z "},"D":{"ha":564,"x_min":0,"x_max":0,"o":"m 57 0 l 290 0 b 518 240 443 0 518 85 l 518 732 b 290 972 518 888 443 972 l 57 972 z m 210 139 l 210 833 l 288 833 b 365 739 336 833 365 808 l 365 233 b 288 139 365 164 336 139 z "},"Ð":{"ha":588,"x_min":0,"x_max":0,"o":"m 314 972 l 81 972 l 81 572 l 14 572 l 14 442 l 81 442 l 81 0 l 314 0 b 542 240 467 0 542 85 l 542 732 b 314 972 542 888 467 972 z m 389 233 b 311 139 389 164 360 139 l 233 139 l 233 442 l 311 442 l 311 572 l 233 572 l 233 833 l 311 833 b 389 739 360 833 389 808 z "},"Ď":{"ha":564,"x_min":0,"x_max":0,"o":"m 199 1038 l 343 1038 l 457 1197 l 342 1197 l 271 1121 l 200 1197 l 85 1197 z m 57 0 l 290 0 b 518 240 443 0 518 85 l 518 732 b 290 972 518 888 443 972 l 57 972 z m 210 139 l 210 833 l 288 833 b 365 739 336 833 365 808 l 365 233 b 288 139 365 164 336 139 z "},"Đ":{"ha":588,"x_min":0,"x_max":0,"o":"m 314 972 l 81 972 l 81 572 l 14 572 l 14 442 l 81 442 l 81 0 l 314 0 b 542 240 467 0 542 85 l 542 732 b 314 972 542 888 467 972 z m 389 233 b 311 139 389 164 360 139 l 233 139 l 233 442 l 311 442 l 311 572 l 233 572 l 233 833 l 311 833 b 389 739 360 833 389 808 z "},"Ḋ":{"ha":564,"x_min":0,"x_max":0,"o":"m 201 1038 l 340 1038 l 340 1179 l 201 1179 z m 57 0 l 290 0 b 518 240 443 0 518 85 l 518 732 b 290 972 518 888 443 972 l 57 972 z m 210 139 l 210 833 l 288 833 b 365 739 336 833 365 808 l 365 233 b 288 139 365 164 336 139 z "},"E":{"ha":504,"x_min":0,"x_max":0,"o":"m 57 0 l 474 0 l 474 139 l 210 139 l 210 438 l 419 438 l 419 576 l 210 576 l 210 833 l 474 833 l 474 972 l 57 972 z "},"É":{"ha":504,"x_min":0,"x_max":0,"o":"m 182 1038 l 297 1038 l 446 1197 l 279 1197 z m 57 0 l 474 0 l 474 139 l 210 139 l 210 438 l 419 438 l 419 576 l 210 576 l 210 833 l 474 833 l 474 972 l 57 972 z "},"Ĕ":{"ha":504,"x_min":0,"x_max":0,"o":"m 264 1032 b 429 1197 368 1032 426 1094 l 339 1197 b 264 1131 332 1144 304 1131 b 192 1197 225 1131 199 1144 l 101 1197 b 264 1032 106 1094 160 1032 z m 57 0 l 474 0 l 474 139 l 210 139 l 210 438 l 419 438 l 419 576 l 210 576 l 210 833 l 474 833 l 474 972 l 57 972 z "},"Ě":{"ha":504,"x_min":0,"x_max":0,"o":"m 193 1038 l 338 1038 l 451 1197 l 336 1197 l 265 1121 l 194 1197 l 79 1197 z m 57 0 l 474 0 l 474 139 l 210 139 l 210 438 l 419 438 l 419 576 l 210 576 l 210 833 l 474 833 l 474 972 l 57 972 z "},"Ê":{"ha":504,"x_min":0,"x_max":0,"o":"m 79 1038 l 194 1038 l 265 1114 l 336 1038 l 451 1038 l 338 1197 l 193 1197 z m 57 0 l 474 0 l 474 139 l 210 139 l 210 438 l 419 438 l 419 576 l 210 576 l 210 833 l 474 833 l 474 972 l 57 972 z "},"Ë":{"ha":504,"x_min":0,"x_max":0,"o":"m 90 1038 l 226 1038 l 226 1179 l 90 1179 z m 304 1038 l 440 1038 l 440 1179 l 304 1179 z m 57 0 l 474 0 l 474 139 l 210 139 l 210 438 l 419 438 l 419 576 l 210 576 l 210 833 l 474 833 l 474 972 l 57 972 z "},"Ė":{"ha":504,"x_min":0,"x_max":0,"o":"m 196 1038 l 335 1038 l 335 1179 l 196 1179 z m 57 0 l 474 0 l 474 139 l 210 139 l 210 438 l 419 438 l 419 576 l 210 576 l 210 833 l 474 833 l 474 972 l 57 972 z "},"È":{"ha":504,"x_min":0,"x_max":0,"o":"m 233 1038 l 349 1038 l 251 1197 l 85 1197 z m 57 0 l 474 0 l 474 139 l 210 139 l 210 438 l 419 438 l 419 576 l 210 576 l 210 833 l 474 833 l 474 972 l 57 972 z "},"Ē":{"ha":504,"x_min":0,"x_max":0,"o":"m 106 1050 l 425 1050 l 425 1158 l 106 1158 z m 57 0 l 474 0 l 474 139 l 210 139 l 210 438 l 419 438 l 419 576 l 210 576 l 210 833 l 474 833 l 474 972 l 57 972 z "},"Ę":{"ha":504,"x_min":0,"x_max":0,"o":"m 474 833 l 474 972 l 57 972 l 57 0 l 351 0 b 257 -118 288 -32 257 -74 b 379 -204 257 -175 304 -204 b 474 -189 418 -204 442 -201 l 474 -111 b 424 -119 458 -115 451 -119 b 375 -81 399 -119 375 -107 b 417 0 375 -61 382 -29 l 474 0 l 474 139 l 210 139 l 210 438 l 419 438 l 419 576 l 210 576 l 210 833 z "},"F":{"ha":478,"x_min":0,"x_max":0,"o":"m 57 0 l 210 0 l 210 424 l 407 424 l 407 563 l 210 563 l 210 833 l 461 833 l 461 972 l 57 972 z "},"Ḟ":{"ha":478,"x_min":0,"x_max":0,"o":"m 185 1038 l 324 1038 l 324 1179 l 185 1179 z m 57 0 l 210 0 l 210 424 l 407 424 l 407 563 l 210 563 l 210 833 l 461 833 l 461 972 l 57 972 z "},"G":{"ha":543,"x_min":0,"x_max":0,"o":"m 274 -14 b 501 231 424 -14 501 75 l 501 549 l 281 549 l 281 410 l 357 410 l 357 219 b 278 125 357 150 326 125 b 199 219 229 125 199 150 l 199 751 b 278 847 199 821 229 847 b 357 751 326 847 357 821 l 357 658 l 501 658 l 501 742 b 274 986 501 897 424 986 b 46 742 124 986 46 897 l 46 231 b 274 -14 46 75 124 -14 z "},"Ğ":{"ha":543,"x_min":0,"x_max":0,"o":"m 272 1032 b 438 1197 376 1032 435 1094 l 347 1197 b 272 1131 340 1144 313 1131 b 200 1197 233 1131 207 1144 l 110 1197 b 272 1032 114 1094 168 1032 z m 274 -14 b 501 231 424 -14 501 75 l 501 549 l 281 549 l 281 410 l 357 410 l 357 219 b 278 125 357 150 326 125 b 199 219 229 125 199 150 l 199 751 b 278 847 199 821 229 847 b 357 751 326 847 357 821 l 357 658 l 501 658 l 501 742 b 274 986 501 897 424 986 b 46 742 124 986 46 897 l 46 231 b 274 -14 46 75 124 -14 z "},"Ĝ":{"ha":543,"x_min":0,"x_max":0,"o":"m 88 1038 l 203 1038 l 274 1114 l 344 1038 l 460 1038 l 346 1197 l 201 1197 z m 274 -14 b 501 231 424 -14 501 75 l 501 549 l 281 549 l 281 410 l 357 410 l 357 219 b 278 125 357 150 326 125 b 199 219 229 125 199 150 l 199 751 b 278 847 199 821 229 847 b 357 751 326 847 357 821 l 357 658 l 501 658 l 501 742 b 274 986 501 897 424 986 b 46 742 124 986 46 897 l 46 231 b 274 -14 46 75 124 -14 z "},"Ģ":{"ha":543,"x_min":0,"x_max":0,"o":"m 274 -14 b 501 231 424 -14 501 75 l 501 549 l 281 549 l 281 410 l 357 410 l 357 219 b 278 125 357 150 326 125 b 199 219 229 125 199 150 l 199 751 b 278 847 199 821 229 847 b 357 751 326 847 357 821 l 357 658 l 501 658 l 501 742 b 274 986 501 897 424 986 b 46 742 124 986 46 897 l 46 231 b 274 -14 46 75 124 -14 z m 222 -262 l 276 -262 l 336 -174 l 336 -60 l 208 -60 l 208 -187 l 258 -187 z "},"Ġ":{"ha":543,"x_min":0,"x_max":0,"o":"m 204 1038 l 343 1038 l 343 1179 l 204 1179 z m 274 -14 b 501 231 424 -14 501 75 l 501 549 l 281 549 l 281 410 l 357 410 l 357 219 b 278 125 357 150 326 125 b 199 219 229 125 199 150 l 199 751 b 278 847 199 821 229 847 b 357 751 326 847 357 821 l 357 658 l 501 658 l 501 742 b 274 986 501 897 424 986 b 46 742 124 986 46 897 l 46 231 b 274 -14 46 75 124 -14 z "},"H":{"ha":583,"x_min":0,"x_max":0,"o":"m 57 0 l 210 0 l 210 438 l 374 438 l 374 0 l 526 0 l 526 972 l 374 972 l 374 576 l 210 576 l 210 972 l 57 972 z "},"Ħ":{"ha":608,"x_min":0,"x_max":0,"o":"m 594 838 l 539 838 l 539 972 l 386 972 l 386 838 l 222 838 l 222 972 l 69 972 l 69 838 l 14 838 l 14 713 l 69 713 l 69 0 l 222 0 l 222 438 l 386 438 l 386 0 l 539 0 l 539 713 l 594 713 z m 386 576 l 222 576 l 222 713 l 386 713 z "},"Ĥ":{"ha":583,"x_min":0,"x_max":0,"o":"m 106 1038 l 221 1038 l 292 1114 l 363 1038 l 478 1038 l 364 1197 l 219 1197 z m 57 0 l 210 0 l 210 438 l 374 438 l 374 0 l 526 0 l 526 972 l 374 972 l 374 576 l 210 576 l 210 972 l 57 972 z "},"I":{"ha":267,"x_min":0,"x_max":0,"o":"m 57 0 l 210 0 l 210 972 l 57 972 z "},"Ĳ":{"ha":635,"x_min":0,"x_max":0,"o":"m 57 0 l 210 0 l 210 972 l 57 972 z m 360 -6 b 582 231 510 -6 582 71 l 582 972 l 429 972 l 429 226 b 339 133 429 163 400 133 b 289 139 322 133 306 135 l 289 0 b 360 -6 311 -4 332 -6 z "},"Í":{"ha":267,"x_min":0,"x_max":0,"o":"m 50 1038 l 165 1038 l 314 1197 l 147 1197 z m 57 0 l 210 0 l 210 972 l 57 972 z "},"Ĭ":{"ha":267,"x_min":0,"x_max":0,"o":"m 132 1032 b 297 1197 236 1032 294 1094 l 207 1197 b 132 1131 200 1144 172 1131 b 60 1197 93 1131 67 1144 l -31 1197 b 132 1032 -26 1094 28 1032 z m 57 0 l 210 0 l 210 972 l 57 972 z "},"Î":{"ha":267,"x_min":0,"x_max":0,"o":"m -53 1038 l 63 1038 l 133 1114 l 204 1038 l 319 1038 l 206 1197 l 61 1197 z m 57 0 l 210 0 l 210 972 l 57 972 z "},"Ï":{"ha":267,"x_min":0,"x_max":0,"o":"m -42 1038 l 94 1038 l 94 1179 l -42 1179 z m 172 1038 l 308 1038 l 308 1179 l 172 1179 z m 57 0 l 210 0 l 210 972 l 57 972 z "},"İ":{"ha":267,"x_min":0,"x_max":0,"o":"m 64 1038 l 203 1038 l 203 1179 l 64 1179 z m 57 0 l 210 0 l 210 972 l 57 972 z "},"Ì":{"ha":267,"x_min":0,"x_max":0,"o":"m 101 1038 l 217 1038 l 119 1197 l -47 1197 z m 57 0 l 210 0 l 210 972 l 57 972 z "},"Ī":{"ha":267,"x_min":0,"x_max":0,"o":"m -26 1050 l 293 1050 l 293 1158 l -26 1158 z m 57 0 l 210 0 l 210 972 l 57 972 z "},"Į":{"ha":267,"x_min":0,"x_max":0,"o":"m 190 -119 b 142 -81 165 -119 142 -107 b 183 0 142 -61 149 -29 l 210 0 l 210 972 l 57 972 l 57 0 l 118 0 b 24 -118 54 -32 24 -74 b 146 -204 24 -175 71 -204 b 240 -189 185 -204 208 -201 l 240 -111 b 190 -119 225 -115 218 -119 z "},"Ĩ":{"ha":267,"x_min":0,"x_max":0,"o":"m 14 1032 b 69 1086 32 1071 47 1086 b 117 1068 86 1086 100 1078 b 200 1042 138 1056 163 1042 b 326 1158 253 1042 292 1081 l 253 1203 b 197 1149 235 1164 219 1149 b 150 1167 181 1149 167 1157 b 67 1193 129 1179 104 1193 b -60 1076 14 1193 -25 1154 z m 57 0 l 210 0 l 210 972 l 57 972 z "},"J":{"ha":368,"x_min":0,"x_max":0,"o":"m 93 -6 b 315 231 243 -6 315 71 l 315 972 l 163 972 l 163 226 b 72 133 163 163 133 133 b 22 139 56 133 39 135 l 22 0 b 93 -6 44 -4 65 -6 z "},"Ĵ":{"ha":368,"x_min":0,"x_max":0,"o":"m 32 1038 l 147 1038 l 218 1114 l 289 1038 l 404 1038 l 290 1197 l 146 1197 z m 93 -6 b 315 231 243 -6 315 71 l 315 972 l 163 972 l 163 226 b 72 133 163 163 133 133 b 22 139 56 133 39 135 l 22 0 b 93 -6 44 -4 65 -6 z "},"K":{"ha":575,"x_min":0,"x_max":0,"o":"m 57 0 l 210 0 l 210 310 l 271 433 l 400 0 l 560 0 l 375 615 l 557 972 l 404 972 l 210 563 l 210 972 l 57 972 z "},"Ķ":{"ha":575,"x_min":0,"x_max":0,"o":"m 57 0 l 210 0 l 210 310 l 271 433 l 400 0 l 560 0 l 375 615 l 557 972 l 404 972 l 210 563 l 210 972 l 57 972 z m 251 -262 l 306 -262 l 365 -174 l 365 -60 l 238 -60 l 238 -187 l 288 -187 z "},"L":{"ha":478,"x_min":0,"x_max":0,"o":"m 57 0 l 461 0 l 461 139 l 210 139 l 210 972 l 57 972 z "},"Ĺ":{"ha":478,"x_min":0,"x_max":0,"o":"m 64 1038 l 179 1038 l 328 1197 l 161 1197 z m 57 0 l 461 0 l 461 139 l 210 139 l 210 972 l 57 972 z "},"Ľ":{"ha":478,"x_min":0,"x_max":0,"o":"m 57 0 l 461 0 l 461 139 l 210 139 l 210 972 l 57 972 z m 306 686 l 368 686 l 432 846 l 432 972 l 290 972 l 290 831 l 346 831 z "},"Ļ":{"ha":478,"x_min":0,"x_max":0,"o":"m 57 0 l 461 0 l 461 139 l 210 139 l 210 972 l 57 972 z m 210 -262 l 264 -262 l 324 -174 l 324 -60 l 196 -60 l 196 -187 l 246 -187 z "},"Ŀ":{"ha":476,"x_min":0,"x_max":0,"o":"m 57 0 l 461 0 l 461 139 l 210 139 l 210 972 l 57 972 z m 297 413 l 444 413 l 444 560 l 297 560 z "},"Ł":{"ha":506,"x_min":0,"x_max":0,"o":"m 238 139 l 238 386 l 403 563 l 403 729 l 238 553 l 238 972 l 85 972 l 85 389 l 14 313 l 14 146 l 85 222 l 85 0 l 489 0 l 489 139 z "},"M":{"ha":747,"x_min":0,"x_max":0,"o":"m 57 0 l 190 0 l 190 736 l 193 736 l 304 0 l 432 0 l 543 736 l 546 736 l 546 0 l 690 0 l 690 972 l 472 972 l 375 276 l 372 276 l 275 972 l 57 972 z "},"Ṁ":{"ha":747,"x_min":0,"x_max":0,"o":"m 304 1038 l 443 1038 l 443 1179 l 304 1179 z m 57 0 l 190 0 l 190 736 l 193 736 l 304 0 l 432 0 l 543 736 l 546 736 l 546 0 l 690 0 l 690 972 l 472 972 l 375 276 l 372 276 l 275 972 l 57 972 z "},"N":{"ha":593,"x_min":0,"x_max":0,"o":"m 57 0 l 193 0 l 193 710 l 196 710 l 379 0 l 536 0 l 536 972 l 400 972 l 400 390 l 397 390 l 249 972 l 57 972 z "},"Ń":{"ha":593,"x_min":0,"x_max":0,"o":"m 214 1038 l 329 1038 l 478 1197 l 311 1197 z m 57 0 l 193 0 l 193 710 l 196 710 l 379 0 l 536 0 l 536 972 l 400 972 l 400 390 l 397 390 l 249 972 l 57 972 z "},"Ň":{"ha":593,"x_min":0,"x_max":0,"o":"m 225 1038 l 369 1038 l 483 1197 l 368 1197 l 297 1121 l 226 1197 l 111 1197 z m 57 0 l 193 0 l 193 710 l 196 710 l 379 0 l 536 0 l 536 972 l 400 972 l 400 390 l 397 390 l 249 972 l 57 972 z "},"Ņ":{"ha":593,"x_min":0,"x_max":0,"o":"m 57 0 l 193 0 l 193 710 l 196 710 l 379 0 l 536 0 l 536 972 l 400 972 l 400 390 l 397 390 l 249 972 l 57 972 z m 247 -262 l 301 -262 l 361 -174 l 361 -60 l 233 -60 l 233 -187 l 283 -187 z "},"Ŋ":{"ha":593,"x_min":0,"x_max":0,"o":"m 331 -236 b 536 -3 464 -236 536 -160 l 536 972 l 400 972 l 400 422 l 397 422 l 249 972 l 57 972 l 57 0 l 193 0 l 193 726 l 196 726 l 375 64 b 389 -25 386 25 389 6 b 317 -104 389 -85 353 -104 b 263 -99 296 -104 279 -103 l 263 -231 b 331 -236 285 -235 306 -236 z "},"Ñ":{"ha":593,"x_min":0,"x_max":0,"o":"m 178 1032 b 233 1086 196 1071 211 1086 b 281 1068 250 1086 264 1078 b 364 1042 301 1056 326 1042 b 490 1158 417 1042 456 1081 l 417 1203 b 361 1149 399 1164 383 1149 b 314 1167 344 1149 331 1157 b 231 1193 293 1179 268 1193 b 104 1076 178 1193 139 1154 z m 57 0 l 193 0 l 193 710 l 196 710 l 379 0 l 536 0 l 536 972 l 400 972 l 400 390 l 397 390 l 249 972 l 57 972 z "},"O":{"ha":556,"x_min":0,"x_max":0,"o":"m 278 -14 b 510 231 428 -14 510 75 l 510 742 b 278 986 510 897 428 986 b 46 742 128 986 46 897 l 46 231 b 278 -14 46 75 128 -14 z m 278 125 b 199 221 229 125 199 151 l 199 751 b 278 847 199 821 229 847 b 357 751 326 847 357 821 l 357 221 b 278 125 357 151 326 125 z "},"Ó":{"ha":556,"x_min":0,"x_max":0,"o":"m 194 1038 l 310 1038 l 458 1197 l 292 1197 z m 278 -14 b 510 231 428 -14 510 75 l 510 742 b 278 986 510 897 428 986 b 46 742 128 986 46 897 l 46 231 b 278 -14 46 75 128 -14 z m 278 125 b 199 221 229 125 199 151 l 199 751 b 278 847 199 821 229 847 b 357 751 326 847 357 821 l 357 221 b 278 125 357 151 326 125 z "},"Ŏ":{"ha":556,"x_min":0,"x_max":0,"o":"m 276 1032 b 442 1197 381 1032 439 1094 l 351 1197 b 276 1131 344 1144 317 1131 b 204 1197 238 1131 211 1144 l 114 1197 b 276 1032 118 1094 172 1032 z m 278 -14 b 510 231 428 -14 510 75 l 510 742 b 278 986 510 897 428 986 b 46 742 128 986 46 897 l 46 231 b 278 -14 46 75 128 -14 z m 278 125 b 199 221 229 125 199 151 l 199 751 b 278 847 199 821 229 847 b 357 751 326 847 357 821 l 357 221 b 278 125 357 151 326 125 z "},"Ô":{"ha":556,"x_min":0,"x_max":0,"o":"m 92 1038 l 207 1038 l 278 1114 l 349 1038 l 464 1038 l 350 1197 l 206 1197 z m 278 -14 b 510 231 428 -14 510 75 l 510 742 b 278 986 510 897 428 986 b 46 742 128 986 46 897 l 46 231 b 278 -14 46 75 128 -14 z m 278 125 b 199 221 229 125 199 151 l 199 751 b 278 847 199 821 229 847 b 357 751 326 847 357 821 l 357 221 b 278 125 357 151 326 125 z "},"Ö":{"ha":556,"x_min":0,"x_max":0,"o":"m 103 1038 l 239 1038 l 239 1179 l 103 1179 z m 317 1038 l 453 1038 l 453 1179 l 317 1179 z m 278 -14 b 510 231 428 -14 510 75 l 510 742 b 278 986 510 897 428 986 b 46 742 128 986 46 897 l 46 231 b 278 -14 46 75 128 -14 z m 278 125 b 199 221 229 125 199 151 l 199 751 b 278 847 199 821 229 847 b 357 751 326 847 357 821 l 357 221 b 278 125 357 151 326 125 z "},"Ò":{"ha":556,"x_min":0,"x_max":0,"o":"m 246 1038 l 361 1038 l 264 1197 l 97 1197 z m 278 -14 b 510 231 428 -14 510 75 l 510 742 b 278 986 510 897 428 986 b 46 742 128 986 46 897 l 46 231 b 278 -14 46 75 128 -14 z m 278 125 b 199 221 229 125 199 151 l 199 751 b 278 847 199 821 229 847 b 357 751 326 847 357 821 l 357 221 b 278 125 357 151 326 125 z "},"Ő":{"ha":556,"x_min":0,"x_max":0,"o":"m 92 1038 l 199 1038 l 343 1197 l 189 1197 z m 299 1038 l 406 1038 l 550 1197 l 396 1197 z m 278 -14 b 510 231 428 -14 510 75 l 510 742 b 278 986 510 897 428 986 b 46 742 128 986 46 897 l 46 231 b 278 -14 46 75 128 -14 z m 278 125 b 199 221 229 125 199 151 l 199 751 b 278 847 199 821 229 847 b 357 751 326 847 357 821 l 357 221 b 278 125 357 151 326 125 z "},"Ō":{"ha":556,"x_min":0,"x_max":0,"o":"m 118 1050 l 438 1050 l 438 1158 l 118 1158 z m 278 -14 b 510 231 428 -14 510 75 l 510 742 b 278 986 510 897 428 986 b 46 742 128 986 46 897 l 46 231 b 278 -14 46 75 128 -14 z m 278 125 b 199 221 229 125 199 151 l 199 751 b 278 847 199 821 229 847 b 357 751 326 847 357 821 l 357 221 b 278 125 357 151 326 125 z "},"Ø":{"ha":556,"x_min":0,"x_max":0,"o":"m 524 972 l 440 1008 l 417 950 b 278 986 381 974 333 986 b 46 742 128 986 46 897 l 46 231 b 72 99 46 179 54 135 l 32 0 l 115 -36 l 139 22 b 278 -14 175 -1 222 -14 b 510 231 428 -14 510 75 l 510 742 b 483 874 510 793 501 838 z m 199 751 b 278 847 199 821 229 847 b 353 792 315 847 343 832 l 199 411 z m 357 221 b 278 125 357 151 326 125 b 203 181 240 125 213 140 l 357 561 z "},"Ǿ":{"ha":556,"x_min":0,"x_max":0,"o":"m 458 1197 l 292 1197 l 194 1038 l 310 1038 z m 524 972 l 440 1008 l 417 950 b 278 986 381 974 333 986 b 46 742 128 986 46 897 l 46 231 b 72 99 46 179 54 135 l 32 0 l 115 -36 l 139 22 b 278 -14 175 -1 222 -14 b 510 231 428 -14 510 75 l 510 742 b 483 874 510 793 501 838 z m 199 751 b 278 847 199 821 229 847 b 353 792 315 847 343 832 l 199 411 z m 357 221 b 278 125 357 151 326 125 b 203 181 240 125 213 140 l 357 561 z "},"Õ":{"ha":556,"x_min":0,"x_max":0,"o":"m 158 1032 b 214 1086 176 1071 192 1086 b 261 1068 231 1086 244 1078 b 344 1042 282 1056 307 1042 b 471 1158 397 1042 436 1081 l 397 1203 b 342 1149 379 1164 364 1149 b 294 1167 325 1149 311 1157 b 211 1193 274 1179 249 1193 b 85 1076 158 1193 119 1154 z m 278 -14 b 510 231 428 -14 510 75 l 510 742 b 278 986 510 897 428 986 b 46 742 128 986 46 897 l 46 231 b 278 -14 46 75 128 -14 z m 278 125 b 199 221 229 125 199 151 l 199 751 b 278 847 199 821 229 847 b 357 751 326 847 357 821 l 357 221 b 278 125 357 151 326 125 z "},"Œ":{"ha":801,"x_min":0,"x_max":0,"o":"m 274 0 l 771 0 l 771 139 l 507 139 l 507 438 l 717 438 l 717 576 l 507 576 l 507 833 l 771 833 l 771 972 l 274 972 b 46 732 121 972 46 888 l 46 240 b 274 0 46 85 121 0 z m 276 139 b 199 233 228 139 199 164 l 199 739 b 276 833 199 808 228 833 l 354 833 l 354 139 z "},"P":{"ha":536,"x_min":0,"x_max":0,"o":"m 57 0 l 210 0 l 210 396 l 282 396 b 510 636 435 396 510 481 l 510 732 b 282 972 510 888 435 972 l 57 972 z m 210 535 l 210 833 l 282 833 b 357 742 331 833 357 811 l 357 626 b 282 535 357 557 331 535 z "},"Ṗ":{"ha":536,"x_min":0,"x_max":0,"o":"m 196 1038 l 335 1038 l 335 1179 l 196 1179 z m 57 0 l 210 0 l 210 396 l 282 396 b 510 636 435 396 510 481 l 510 732 b 282 972 510 888 435 972 l 57 972 z m 210 535 l 210 833 l 282 833 b 357 742 331 833 357 811 l 357 626 b 282 535 357 557 331 535 z "},"Þ":{"ha":536,"x_min":0,"x_max":0,"o":"m 57 0 l 210 0 l 210 258 l 282 258 b 510 499 435 258 510 343 l 510 594 b 282 835 510 750 435 835 l 210 835 l 210 972 l 57 972 z m 210 397 l 210 696 l 282 696 b 357 604 331 696 357 674 l 357 489 b 282 397 357 419 331 397 z "},"Q":{"ha":556,"x_min":0,"x_max":0,"o":"m 507 -90 l 547 -90 l 547 49 l 524 49 b 467 71 496 49 478 51 b 510 231 494 111 510 164 l 510 742 b 278 986 510 897 428 986 b 46 742 128 986 46 897 l 46 231 b 278 -14 46 75 128 -14 b 379 3 315 -14 350 -8 b 507 -90 397 -69 450 -90 z m 278 125 b 199 221 229 125 199 151 l 199 751 b 278 847 199 821 229 847 b 357 751 326 847 357 821 l 357 221 b 278 125 357 151 326 125 z "},"R":{"ha":560,"x_min":0,"x_max":0,"o":"m 57 0 l 210 0 l 210 417 l 263 417 b 358 297 332 417 358 388 l 358 119 b 372 0 358 40 364 25 l 528 0 b 511 118 513 36 511 71 l 511 289 b 410 494 511 399 486 471 l 410 497 b 510 689 478 525 510 589 l 510 749 b 283 972 510 899 442 972 l 57 972 z m 210 556 l 210 833 l 279 833 b 357 733 333 833 357 803 l 357 658 b 265 556 357 581 322 556 z "},"Ŕ":{"ha":560,"x_min":0,"x_max":0,"o":"m 185 1038 l 300 1038 l 449 1197 l 282 1197 z m 57 0 l 210 0 l 210 417 l 263 417 b 358 297 332 417 358 388 l 358 119 b 372 0 358 40 364 25 l 528 0 b 511 118 513 36 511 71 l 511 289 b 410 494 511 399 486 471 l 410 497 b 510 689 478 525 510 589 l 510 749 b 283 972 510 899 442 972 l 57 972 z m 210 556 l 210 833 l 279 833 b 357 733 333 833 357 803 l 357 658 b 265 556 357 581 322 556 z "},"Ř":{"ha":560,"x_min":0,"x_max":0,"o":"m 196 1038 l 340 1038 l 454 1197 l 339 1197 l 268 1121 l 197 1197 l 82 1197 z m 57 0 l 210 0 l 210 417 l 263 417 b 358 297 332 417 358 388 l 358 119 b 372 0 358 40 364 25 l 528 0 b 511 118 513 36 511 71 l 511 289 b 410 494 511 399 486 471 l 410 497 b 510 689 478 525 510 589 l 510 749 b 283 972 510 899 442 972 l 57 972 z m 210 556 l 210 833 l 279 833 b 357 733 333 833 357 803 l 357 658 b 265 556 357 581 322 556 z "},"Ŗ":{"ha":560,"x_min":0,"x_max":0,"o":"m 57 0 l 210 0 l 210 417 l 263 417 b 358 297 332 417 358 388 l 358 119 b 372 0 358 40 364 25 l 528 0 b 511 118 513 36 511 71 l 511 289 b 410 494 511 399 486 471 l 410 497 b 510 689 478 525 510 589 l 510 749 b 283 972 510 899 442 972 l 57 972 z m 210 556 l 210 833 l 279 833 b 357 733 333 833 357 803 l 357 658 b 265 556 357 581 322 556 z m 232 -262 l 286 -262 l 346 -174 l 346 -60 l 218 -60 l 218 -187 l 268 -187 z "},"S":{"ha":517,"x_min":0,"x_max":0,"o":"m 256 -14 b 486 233 406 -14 486 75 b 318 544 486 354 446 432 b 186 754 218 632 186 683 b 263 847 186 821 214 847 b 339 751 311 847 339 821 l 339 701 l 483 701 l 483 742 b 261 986 483 897 410 986 b 33 744 113 986 33 897 b 203 442 33 633 75 554 b 333 222 303 354 333 303 b 254 125 333 150 303 125 b 175 219 206 125 175 150 l 175 286 l 31 286 l 31 231 b 256 -14 31 75 106 -14 z "},"Ś":{"ha":517,"x_min":0,"x_max":0,"o":"m 175 1038 l 290 1038 l 439 1197 l 272 1197 z m 256 -14 b 486 233 406 -14 486 75 b 318 544 486 354 446 432 b 186 754 218 632 186 683 b 263 847 186 821 214 847 b 339 751 311 847 339 821 l 339 701 l 483 701 l 483 742 b 261 986 483 897 410 986 b 33 744 113 986 33 897 b 203 442 33 633 75 554 b 333 222 303 354 333 303 b 254 125 333 150 303 125 b 175 219 206 125 175 150 l 175 286 l 31 286 l 31 231 b 256 -14 31 75 106 -14 z "},"Š":{"ha":517,"x_min":0,"x_max":0,"o":"m 186 1038 l 331 1038 l 444 1197 l 329 1197 l 258 1121 l 188 1197 l 72 1197 z m 256 -14 b 486 233 406 -14 486 75 b 318 544 486 354 446 432 b 186 754 218 632 186 683 b 263 847 186 821 214 847 b 339 751 311 847 339 821 l 339 701 l 483 701 l 483 742 b 261 986 483 897 410 986 b 33 744 113 986 33 897 b 203 442 33 633 75 554 b 333 222 303 354 333 303 b 254 125 333 150 303 125 b 175 219 206 125 175 150 l 175 286 l 31 286 l 31 231 b 256 -14 31 75 106 -14 z "},"Ş":{"ha":517,"x_min":0,"x_max":0,"o":"m 486 233 b 318 544 486 354 446 432 b 186 754 218 632 186 683 b 263 847 186 821 214 847 b 339 751 311 847 339 821 l 339 701 l 483 701 l 483 742 b 261 986 483 897 410 986 b 33 744 113 986 33 897 b 203 442 33 633 75 554 b 333 222 303 354 333 303 b 254 125 333 150 303 125 b 175 219 206 125 175 150 l 175 286 l 31 286 l 31 231 b 225 -12 31 86 96 -1 l 225 -79 l 232 -79 b 283 -115 267 -79 283 -89 b 247 -149 283 -139 272 -149 b 217 -121 232 -149 217 -142 l 217 -110 l 114 -110 l 114 -124 b 247 -204 114 -187 171 -204 b 389 -119 331 -204 389 -194 b 293 -54 389 -71 354 -54 l 293 -12 b 486 233 419 1 486 89 z "},"Ŝ":{"ha":517,"x_min":0,"x_max":0,"o":"m 72 1038 l 188 1038 l 258 1114 l 329 1038 l 444 1038 l 331 1197 l 186 1197 z m 256 -14 b 486 233 406 -14 486 75 b 318 544 486 354 446 432 b 186 754 218 632 186 683 b 263 847 186 821 214 847 b 339 751 311 847 339 821 l 339 701 l 483 701 l 483 742 b 261 986 483 897 410 986 b 33 744 113 986 33 897 b 203 442 33 633 75 554 b 333 222 303 354 333 303 b 254 125 333 150 303 125 b 175 219 206 125 175 150 l 175 286 l 31 286 l 31 231 b 256 -14 31 75 106 -14 z "},"Ș":{"ha":517,"x_min":0,"x_max":0,"o":"m 256 -14 b 486 233 406 -14 486 75 b 318 544 486 354 446 432 b 186 754 218 632 186 683 b 263 847 186 821 214 847 b 339 751 311 847 339 821 l 339 701 l 483 701 l 483 742 b 261 986 483 897 410 986 b 33 744 113 986 33 897 b 203 442 33 633 75 554 b 333 222 303 354 333 303 b 254 125 333 150 303 125 b 175 219 206 125 175 150 l 175 286 l 31 286 l 31 231 b 256 -14 31 75 106 -14 z m 208 -262 l 263 -262 l 322 -174 l 322 -60 l 194 -60 l 194 -187 l 244 -187 z "},"Ṡ":{"ha":517,"x_min":0,"x_max":0,"o":"m 189 1038 l 328 1038 l 328 1179 l 189 1179 z m 256 -14 b 486 233 406 -14 486 75 b 318 544 486 354 446 432 b 186 754 218 632 186 683 b 263 847 186 821 214 847 b 339 751 311 847 339 821 l 339 701 l 483 701 l 483 742 b 261 986 483 897 410 986 b 33 744 113 986 33 897 b 203 442 33 633 75 554 b 333 222 303 354 333 303 b 254 125 333 150 303 125 b 175 219 206 125 175 150 l 175 286 l 31 286 l 31 231 b 256 -14 31 75 106 -14 z "},"ẞ":{"ha":565,"x_min":0,"x_max":0,"o":"m 57 0 l 210 0 l 210 833 l 371 833 l 269 581 l 269 451 l 307 451 b 382 360 356 451 382 429 l 382 231 b 307 139 382 161 356 139 l 269 139 l 269 0 l 307 0 b 535 240 460 0 535 85 l 535 350 b 414 574 535 469 499 547 l 521 836 l 521 972 l 57 972 z "},"T":{"ha":506,"x_min":0,"x_max":0,"o":"m 176 0 l 329 0 l 329 833 l 489 833 l 489 972 l 17 972 l 17 833 l 176 833 z "},"Ŧ":{"ha":506,"x_min":0,"x_max":0,"o":"m 489 833 l 489 972 l 17 972 l 17 833 l 176 833 l 176 576 l 71 576 l 71 438 l 176 438 l 176 0 l 329 0 l 329 438 l 435 438 l 435 576 l 329 576 l 329 833 z "},"Ť":{"ha":506,"x_min":0,"x_max":0,"o":"m 181 1038 l 325 1038 l 439 1197 l 324 1197 l 253 1121 l 182 1197 l 67 1197 z m 176 0 l 329 0 l 329 833 l 489 833 l 489 972 l 17 972 l 17 833 l 176 833 z "},"Ţ":{"ha":506,"x_min":0,"x_max":0,"o":"m 329 0 l 329 833 l 489 833 l 489 972 l 17 972 l 17 833 l 176 833 l 176 0 l 219 0 l 219 -79 l 226 -79 b 278 -115 261 -79 278 -89 b 242 -149 278 -139 267 -149 b 211 -121 226 -149 211 -142 l 211 -110 l 108 -110 l 108 -124 b 242 -204 108 -187 165 -204 b 383 -119 325 -204 383 -194 b 288 -54 383 -71 349 -54 l 288 0 z "},"Ț":{"ha":506,"x_min":0,"x_max":0,"o":"m 176 0 l 329 0 l 329 833 l 489 833 l 489 972 l 17 972 l 17 833 l 176 833 z m 203 -262 l 257 -262 l 317 -174 l 317 -60 l 189 -60 l 189 -187 l 239 -187 z "},"Ṫ":{"ha":506,"x_min":0,"x_max":0,"o":"m 183 1038 l 322 1038 l 322 1179 l 183 1179 z m 176 0 l 329 0 l 329 833 l 489 833 l 489 972 l 17 972 l 17 833 l 176 833 z "},"U":{"ha":558,"x_min":0,"x_max":0,"o":"m 279 -14 b 507 231 429 -14 507 75 l 507 972 l 360 972 l 360 219 b 282 125 360 150 331 125 b 204 219 233 125 204 150 l 204 972 l 51 972 l 51 231 b 279 -14 51 75 129 -14 z "},"Ú":{"ha":558,"x_min":0,"x_max":0,"o":"m 196 1038 l 311 1038 l 460 1197 l 293 1197 z m 279 -14 b 507 231 429 -14 507 75 l 507 972 l 360 972 l 360 219 b 282 125 360 150 331 125 b 204 219 233 125 204 150 l 204 972 l 51 972 l 51 231 b 279 -14 51 75 129 -14 z "},"Ŭ":{"ha":558,"x_min":0,"x_max":0,"o":"m 278 1032 b 443 1197 382 1032 440 1094 l 353 1197 b 278 1131 346 1144 318 1131 b 206 1197 239 1131 213 1144 l 115 1197 b 278 1032 119 1094 174 1032 z m 279 -14 b 507 231 429 -14 507 75 l 507 972 l 360 972 l 360 219 b 282 125 360 150 331 125 b 204 219 233 125 204 150 l 204 972 l 51 972 l 51 231 b 279 -14 51 75 129 -14 z "},"Û":{"ha":558,"x_min":0,"x_max":0,"o":"m 93 1038 l 208 1038 l 279 1114 l 350 1038 l 465 1038 l 351 1197 l 207 1197 z m 279 -14 b 507 231 429 -14 507 75 l 507 972 l 360 972 l 360 219 b 282 125 360 150 331 125 b 204 219 233 125 204 150 l 204 972 l 51 972 l 51 231 b 279 -14 51 75 129 -14 z "},"Ü":{"ha":558,"x_min":0,"x_max":0,"o":"m 104 1038 l 240 1038 l 240 1179 l 104 1179 z m 318 1038 l 454 1038 l 454 1179 l 318 1179 z m 279 -14 b 507 231 429 -14 507 75 l 507 972 l 360 972 l 360 219 b 282 125 360 150 331 125 b 204 219 233 125 204 150 l 204 972 l 51 972 l 51 231 b 279 -14 51 75 129 -14 z "},"Ù":{"ha":558,"x_min":0,"x_max":0,"o":"m 247 1038 l 363 1038 l 265 1197 l 99 1197 z m 279 -14 b 507 231 429 -14 507 75 l 507 972 l 360 972 l 360 219 b 282 125 360 150 331 125 b 204 219 233 125 204 150 l 204 972 l 51 972 l 51 231 b 279 -14 51 75 129 -14 z "},"Ű":{"ha":558,"x_min":0,"x_max":0,"o":"m 93 1038 l 200 1038 l 344 1197 l 190 1197 z m 300 1038 l 407 1038 l 551 1197 l 397 1197 z m 279 -14 b 507 231 429 -14 507 75 l 507 972 l 360 972 l 360 219 b 282 125 360 150 331 125 b 204 219 233 125 204 150 l 204 972 l 51 972 l 51 231 b 279 -14 51 75 129 -14 z "},"Ū":{"ha":558,"x_min":0,"x_max":0,"o":"m 119 1050 l 439 1050 l 439 1158 l 119 1158 z m 279 -14 b 507 231 429 -14 507 75 l 507 972 l 360 972 l 360 219 b 282 125 360 150 331 125 b 204 219 233 125 204 150 l 204 972 l 51 972 l 51 231 b 279 -14 51 75 129 -14 z "},"Ų":{"ha":558,"x_min":0,"x_max":0,"o":"m 360 972 l 360 219 b 282 125 360 150 331 125 b 204 219 233 125 204 150 l 204 972 l 51 972 l 51 231 b 267 -14 51 79 125 -8 b 196 -118 219 -43 196 -79 b 318 -204 196 -175 243 -204 b 413 -189 357 -204 381 -201 l 413 -111 b 363 -119 397 -115 390 -119 b 314 -81 338 -119 314 -107 b 349 -7 314 -62 321 -33 b 507 231 453 18 507 101 l 507 972 z "},"Ů":{"ha":558,"x_min":0,"x_max":0,"o":"m 279 1022 b 403 1144 350 1022 403 1076 b 279 1267 403 1213 350 1267 b 156 1144 208 1267 156 1213 b 279 1022 156 1076 208 1022 z m 279 1096 b 235 1144 254 1096 235 1115 b 279 1193 235 1174 254 1193 b 324 1144 304 1193 324 1174 b 279 1096 324 1115 304 1096 z m 279 -14 b 507 231 429 -14 507 75 l 507 972 l 360 972 l 360 219 b 282 125 360 150 331 125 b 204 219 233 125 204 150 l 204 972 l 51 972 l 51 231 b 279 -14 51 75 129 -14 z "},"Ũ":{"ha":558,"x_min":0,"x_max":0,"o":"m 160 1032 b 215 1086 178 1071 193 1086 b 263 1068 232 1086 246 1078 b 346 1042 283 1056 308 1042 b 472 1158 399 1042 438 1081 l 399 1203 b 343 1149 381 1164 365 1149 b 296 1167 326 1149 313 1157 b 213 1193 275 1179 250 1193 b 86 1076 160 1193 121 1154 z m 279 -14 b 507 231 429 -14 507 75 l 507 972 l 360 972 l 360 219 b 282 125 360 150 331 125 b 204 219 233 125 204 150 l 204 972 l 51 972 l 51 231 b 279 -14 51 75 129 -14 z "},"V":{"ha":531,"x_min":0,"x_max":0,"o":"m 164 0 l 367 0 l 514 972 l 374 972 l 274 218 l 271 218 l 171 972 l 17 972 z "},"W":{"ha":774,"x_min":0,"x_max":0,"o":"m 119 0 l 322 0 l 392 656 l 394 656 l 464 0 l 654 0 l 753 972 l 621 972 l 553 225 l 550 225 l 478 972 l 311 972 l 239 225 l 236 225 l 168 972 l 21 972 z "},"Ẃ":{"ha":774,"x_min":0,"x_max":0,"o":"m 304 1038 l 419 1038 l 568 1197 l 401 1197 z m 119 0 l 322 0 l 392 656 l 394 656 l 464 0 l 654 0 l 753 972 l 621 972 l 553 225 l 550 225 l 478 972 l 311 972 l 239 225 l 236 225 l 168 972 l 21 972 z "},"Ŵ":{"ha":774,"x_min":0,"x_max":0,"o":"m 201 1038 l 317 1038 l 388 1114 l 458 1038 l 574 1038 l 460 1197 l 315 1197 z m 119 0 l 322 0 l 392 656 l 394 656 l 464 0 l 654 0 l 753 972 l 621 972 l 553 225 l 550 225 l 478 972 l 311 972 l 239 225 l 236 225 l 168 972 l 21 972 z "},"Ẅ":{"ha":774,"x_min":0,"x_max":0,"o":"m 213 1038 l 349 1038 l 349 1179 l 213 1179 z m 426 1038 l 563 1038 l 563 1179 l 426 1179 z m 119 0 l 322 0 l 392 656 l 394 656 l 464 0 l 654 0 l 753 972 l 621 972 l 553 225 l 550 225 l 478 972 l 311 972 l 239 225 l 236 225 l 168 972 l 21 972 z "},"Ẁ":{"ha":774,"x_min":0,"x_max":0,"o":"m 356 1038 l 471 1038 l 374 1197 l 207 1197 z m 119 0 l 322 0 l 392 656 l 394 656 l 464 0 l 654 0 l 753 972 l 621 972 l 553 225 l 550 225 l 478 972 l 311 972 l 239 225 l 236 225 l 168 972 l 21 972 z "},"X":{"ha":564,"x_min":0,"x_max":0,"o":"m 15 0 l 160 0 l 274 339 l 276 339 l 388 0 l 549 0 l 372 497 l 540 972 l 396 972 l 290 658 l 288 658 l 185 972 l 24 972 l 192 497 z "},"Y":{"ha":547,"x_min":0,"x_max":0,"o":"m 197 0 l 350 0 l 350 414 l 535 972 l 386 972 l 282 615 l 279 615 l 175 972 l 13 972 l 197 414 z "},"Ý":{"ha":547,"x_min":0,"x_max":0,"o":"m 190 1038 l 306 1038 l 454 1197 l 288 1197 z m 197 0 l 350 0 l 350 414 l 535 972 l 386 972 l 282 615 l 279 615 l 175 972 l 13 972 l 197 414 z "},"Ŷ":{"ha":547,"x_min":0,"x_max":0,"o":"m 88 1038 l 203 1038 l 274 1114 l 344 1038 l 460 1038 l 346 1197 l 201 1197 z m 197 0 l 350 0 l 350 414 l 535 972 l 386 972 l 282 615 l 279 615 l 175 972 l 13 972 l 197 414 z "},"Ÿ":{"ha":547,"x_min":0,"x_max":0,"o":"m 99 1038 l 235 1038 l 235 1179 l 99 1179 z m 313 1038 l 449 1038 l 449 1179 l 313 1179 z m 197 0 l 350 0 l 350 414 l 535 972 l 386 972 l 282 615 l 279 615 l 175 972 l 13 972 l 197 414 z "},"Ỳ":{"ha":547,"x_min":0,"x_max":0,"o":"m 242 1038 l 357 1038 l 260 1197 l 93 1197 z m 197 0 l 350 0 l 350 414 l 535 972 l 386 972 l 282 615 l 279 615 l 175 972 l 13 972 l 197 414 z "},"Z":{"ha":503,"x_min":0,"x_max":0,"o":"m 26 0 l 474 0 l 474 139 l 190 139 l 474 836 l 474 972 l 40 972 l 40 833 l 310 833 l 26 136 z "},"Ź":{"ha":503,"x_min":0,"x_max":0,"o":"m 174 1038 l 289 1038 l 438 1197 l 271 1197 z m 26 0 l 474 0 l 474 139 l 190 139 l 474 836 l 474 972 l 40 972 l 40 833 l 310 833 l 26 136 z "},"Ž":{"ha":503,"x_min":0,"x_max":0,"o":"m 185 1038 l 329 1038 l 443 1197 l 328 1197 l 257 1121 l 186 1197 l 71 1197 z m 26 0 l 474 0 l 474 139 l 190 139 l 474 836 l 474 972 l 40 972 l 40 833 l 310 833 l 26 136 z "},"Ż":{"ha":503,"x_min":0,"x_max":0,"o":"m 188 1038 l 326 1038 l 326 1179 l 188 1179 z m 26 0 l 474 0 l 474 139 l 190 139 l 474 836 l 474 972 l 40 972 l 40 833 l 310 833 l 26 136 z "},"a":{"ha":557,"x_min":0,"x_max":0,"o":"m 17 0 l 158 0 l 186 190 l 360 190 l 360 193 l 388 0 l 540 0 l 382 972 l 175 972 z m 204 322 l 271 803 l 274 803 l 342 322 z "},"á":{"ha":557,"x_min":0,"x_max":0,"o":"m 196 1038 l 311 1038 l 460 1197 l 293 1197 z m 17 0 l 158 0 l 186 190 l 360 190 l 360 193 l 388 0 l 540 0 l 382 972 l 175 972 z m 204 322 l 271 803 l 274 803 l 342 322 z "},"ă":{"ha":557,"x_min":0,"x_max":0,"o":"m 278 1032 b 443 1197 382 1032 440 1094 l 353 1197 b 278 1131 346 1144 318 1131 b 206 1197 239 1131 213 1144 l 115 1197 b 278 1032 119 1094 174 1032 z m 17 0 l 158 0 l 186 190 l 360 190 l 360 193 l 388 0 l 540 0 l 382 972 l 175 972 z m 204 322 l 271 803 l 274 803 l 342 322 z "},"â":{"ha":557,"x_min":0,"x_max":0,"o":"m 93 1038 l 208 1038 l 279 1114 l 350 1038 l 465 1038 l 351 1197 l 207 1197 z m 17 0 l 158 0 l 186 190 l 360 190 l 360 193 l 388 0 l 540 0 l 382 972 l 175 972 z m 204 322 l 271 803 l 274 803 l 342 322 z "},"ä":{"ha":557,"x_min":0,"x_max":0,"o":"m 104 1038 l 240 1038 l 240 1179 l 104 1179 z m 318 1038 l 454 1038 l 454 1179 l 318 1179 z m 17 0 l 158 0 l 186 190 l 360 190 l 360 193 l 388 0 l 540 0 l 382 972 l 175 972 z m 204 322 l 271 803 l 274 803 l 342 322 z "},"à":{"ha":557,"x_min":0,"x_max":0,"o":"m 247 1038 l 363 1038 l 265 1197 l 99 1197 z m 17 0 l 158 0 l 186 190 l 360 190 l 360 193 l 388 0 l 540 0 l 382 972 l 175 972 z m 204 322 l 271 803 l 274 803 l 342 322 z "},"ā":{"ha":557,"x_min":0,"x_max":0,"o":"m 119 1050 l 439 1050 l 439 1158 l 119 1158 z m 17 0 l 158 0 l 186 190 l 360 190 l 360 193 l 388 0 l 540 0 l 382 972 l 175 972 z m 204 322 l 271 803 l 274 803 l 342 322 z "},"ą":{"ha":557,"x_min":0,"x_max":0,"o":"m 442 -81 b 483 0 442 -61 449 -29 l 540 0 l 382 972 l 175 972 l 17 0 l 158 0 l 186 190 l 360 190 l 360 193 l 388 0 l 418 0 b 324 -118 354 -32 324 -74 b 446 -204 324 -175 371 -204 b 540 -189 485 -204 508 -201 l 540 -111 b 490 -119 525 -115 518 -119 b 442 -81 465 -119 442 -107 z m 204 322 l 271 803 l 274 803 l 342 322 z "},"å":{"ha":557,"x_min":0,"x_max":0,"o":"m 279 1022 b 403 1144 350 1022 403 1076 b 279 1267 403 1213 350 1267 b 156 1144 208 1267 156 1213 b 279 1022 156 1076 208 1022 z m 279 1096 b 235 1144 254 1096 235 1115 b 279 1193 235 1174 254 1193 b 324 1144 304 1193 324 1174 b 279 1096 324 1115 304 1096 z m 17 0 l 158 0 l 186 190 l 360 190 l 360 193 l 388 0 l 540 0 l 382 972 l 175 972 z m 204 322 l 271 803 l 274 803 l 342 322 z "},"ã":{"ha":557,"x_min":0,"x_max":0,"o":"m 160 1032 b 215 1086 178 1071 193 1086 b 263 1068 232 1086 246 1078 b 346 1042 283 1056 308 1042 b 472 1158 399 1042 438 1081 l 399 1203 b 343 1149 381 1164 365 1149 b 296 1167 326 1149 313 1157 b 213 1193 275 1179 250 1193 b 86 1076 160 1193 121 1154 z m 17 0 l 158 0 l 186 190 l 360 190 l 360 193 l 388 0 l 540 0 l 382 972 l 175 972 z m 204 322 l 271 803 l 274 803 l 342 322 z "},"æ":{"ha":806,"x_min":0,"x_max":0,"o":"m 14 0 l 160 0 l 208 190 l 358 190 l 358 0 l 775 0 l 775 139 l 511 139 l 511 438 l 721 438 l 721 576 l 511 576 l 511 833 l 775 833 l 775 972 l 274 972 z m 242 322 l 356 785 l 358 785 l 358 322 z "},"ǽ":{"ha":806,"x_min":0,"x_max":0,"o":"m 317 1038 l 432 1038 l 581 1197 l 414 1197 z m 14 0 l 160 0 l 208 190 l 358 190 l 358 0 l 775 0 l 775 139 l 511 139 l 511 438 l 721 438 l 721 576 l 511 576 l 511 833 l 775 833 l 775 972 l 274 972 z m 242 322 l 356 785 l 358 785 l 358 322 z "},"b":{"ha":561,"x_min":0,"x_max":0,"o":"m 57 0 l 297 0 b 529 231 450 0 529 81 l 529 314 b 415 517 529 417 497 489 l 415 519 b 514 710 483 547 514 610 l 514 749 b 288 972 514 899 446 972 l 57 972 z m 210 576 l 210 833 l 283 833 b 361 733 338 833 361 803 l 361 679 b 269 576 361 601 326 576 z m 210 139 l 210 438 l 278 438 b 376 319 347 438 376 410 l 376 235 b 297 139 376 163 349 139 z "},"ḃ":{"ha":561,"x_min":0,"x_max":0,"o":"m 196 1038 l 335 1038 l 335 1179 l 196 1179 z m 57 0 l 297 0 b 529 231 450 0 529 81 l 529 314 b 415 517 529 417 497 489 l 415 519 b 514 710 483 547 514 610 l 514 749 b 288 972 514 899 446 972 l 57 972 z m 210 576 l 210 833 l 283 833 b 361 733 338 833 361 803 l 361 679 b 269 576 361 601 326 576 z m 210 139 l 210 438 l 278 438 b 376 319 347 438 376 410 l 376 235 b 297 139 376 163 349 139 z "},"c":{"ha":532,"x_min":0,"x_max":0,"o":"m 272 -14 b 497 225 419 -14 497 75 l 497 363 l 353 363 l 353 214 b 276 125 353 150 322 125 b 200 214 231 125 200 150 l 200 757 b 276 847 200 821 231 847 b 353 757 322 847 353 821 l 353 644 l 497 644 l 497 747 b 272 986 497 897 419 986 b 47 747 125 986 47 897 l 47 225 b 272 -14 47 75 125 -14 z "},"ć":{"ha":532,"x_min":0,"x_max":0,"o":"m 185 1038 l 300 1038 l 449 1197 l 282 1197 z m 272 -14 b 497 225 419 -14 497 75 l 497 363 l 353 363 l 353 214 b 276 125 353 150 322 125 b 200 214 231 125 200 150 l 200 757 b 276 847 200 821 231 847 b 353 757 322 847 353 821 l 353 644 l 497 644 l 497 747 b 272 986 497 897 419 986 b 47 747 125 986 47 897 l 47 225 b 272 -14 47 75 125 -14 z "},"č":{"ha":532,"x_min":0,"x_max":0,"o":"m 196 1038 l 340 1038 l 454 1197 l 339 1197 l 268 1121 l 197 1197 l 82 1197 z m 272 -14 b 497 225 419 -14 497 75 l 497 363 l 353 363 l 353 214 b 276 125 353 150 322 125 b 200 214 231 125 200 150 l 200 757 b 276 847 200 821 231 847 b 353 757 322 847 353 821 l 353 644 l 497 644 l 497 747 b 272 986 497 897 419 986 b 47 747 125 986 47 897 l 47 225 b 272 -14 47 75 125 -14 z "},"ç":{"ha":532,"x_min":0,"x_max":0,"o":"m 497 644 l 497 747 b 272 986 497 897 419 986 b 47 747 125 986 47 897 l 47 225 b 240 -12 47 86 114 0 l 240 -79 l 247 -79 b 299 -115 282 -79 299 -89 b 263 -149 299 -139 288 -149 b 232 -121 247 -149 232 -142 l 232 -110 l 129 -110 l 129 -124 b 263 -204 129 -187 186 -204 b 404 -119 346 -204 404 -194 b 308 -54 404 -71 369 -54 l 308 -12 b 497 225 432 1 497 88 l 497 363 l 353 363 l 353 214 b 276 125 353 150 322 125 b 200 214 231 125 200 150 l 200 757 b 276 847 200 821 231 847 b 353 757 322 847 353 821 l 353 644 z "},"ĉ":{"ha":532,"x_min":0,"x_max":0,"o":"m 82 1038 l 197 1038 l 268 1114 l 339 1038 l 454 1038 l 340 1197 l 196 1197 z m 272 -14 b 497 225 419 -14 497 75 l 497 363 l 353 363 l 353 214 b 276 125 353 150 322 125 b 200 214 231 125 200 150 l 200 757 b 276 847 200 821 231 847 b 353 757 322 847 353 821 l 353 644 l 497 644 l 497 747 b 272 986 497 897 419 986 b 47 747 125 986 47 897 l 47 225 b 272 -14 47 75 125 -14 z "},"ċ":{"ha":532,"x_min":0,"x_max":0,"o":"m 199 1038 l 338 1038 l 338 1179 l 199 1179 z m 272 -14 b 497 225 419 -14 497 75 l 497 363 l 353 363 l 353 214 b 276 125 353 150 322 125 b 200 214 231 125 200 150 l 200 757 b 276 847 200 821 231 847 b 353 757 322 847 353 821 l 353 644 l 497 644 l 497 747 b 272 986 497 897 419 986 b 47 747 125 986 47 897 l 47 225 b 272 -14 47 75 125 -14 z "},"d":{"ha":564,"x_min":0,"x_max":0,"o":"m 57 0 l 290 0 b 518 240 443 0 518 85 l 518 732 b 290 972 518 888 443 972 l 57 972 z m 210 139 l 210 833 l 288 833 b 365 739 336 833 365 808 l 365 233 b 288 139 365 164 336 139 z "},"ð":{"ha":588,"x_min":0,"x_max":0,"o":"m 314 972 l 81 972 l 81 572 l 14 572 l 14 442 l 81 442 l 81 0 l 314 0 b 542 240 467 0 542 85 l 542 732 b 314 972 542 888 467 972 z m 389 233 b 311 139 389 164 360 139 l 233 139 l 233 442 l 311 442 l 311 572 l 233 572 l 233 833 l 311 833 b 389 739 360 833 389 808 z "},"ď":{"ha":564,"x_min":0,"x_max":0,"o":"m 199 1038 l 343 1038 l 457 1197 l 342 1197 l 271 1121 l 200 1197 l 85 1197 z m 57 0 l 290 0 b 518 240 443 0 518 85 l 518 732 b 290 972 518 888 443 972 l 57 972 z m 210 139 l 210 833 l 288 833 b 365 739 336 833 365 808 l 365 233 b 288 139 365 164 336 139 z "},"đ":{"ha":588,"x_min":0,"x_max":0,"o":"m 314 972 l 81 972 l 81 572 l 14 572 l 14 442 l 81 442 l 81 0 l 314 0 b 542 240 467 0 542 85 l 542 732 b 314 972 542 888 467 972 z m 389 233 b 311 139 389 164 360 139 l 233 139 l 233 442 l 311 442 l 311 572 l 233 572 l 233 833 l 311 833 b 389 739 360 833 389 808 z "},"ḋ":{"ha":564,"x_min":0,"x_max":0,"o":"m 201 1038 l 340 1038 l 340 1179 l 201 1179 z m 57 0 l 290 0 b 518 240 443 0 518 85 l 518 732 b 290 972 518 888 443 972 l 57 972 z m 210 139 l 210 833 l 288 833 b 365 739 336 833 365 808 l 365 233 b 288 139 365 164 336 139 z "},"e":{"ha":504,"x_min":0,"x_max":0,"o":"m 57 0 l 474 0 l 474 139 l 210 139 l 210 438 l 419 438 l 419 576 l 210 576 l 210 833 l 474 833 l 474 972 l 57 972 z "},"é":{"ha":504,"x_min":0,"x_max":0,"o":"m 182 1038 l 297 1038 l 446 1197 l 279 1197 z m 57 0 l 474 0 l 474 139 l 210 139 l 210 438 l 419 438 l 419 576 l 210 576 l 210 833 l 474 833 l 474 972 l 57 972 z "},"ĕ":{"ha":504,"x_min":0,"x_max":0,"o":"m 264 1032 b 429 1197 368 1032 426 1094 l 339 1197 b 264 1131 332 1144 304 1131 b 192 1197 225 1131 199 1144 l 101 1197 b 264 1032 106 1094 160 1032 z m 57 0 l 474 0 l 474 139 l 210 139 l 210 438 l 419 438 l 419 576 l 210 576 l 210 833 l 474 833 l 474 972 l 57 972 z "},"ě":{"ha":504,"x_min":0,"x_max":0,"o":"m 193 1038 l 338 1038 l 451 1197 l 336 1197 l 265 1121 l 194 1197 l 79 1197 z m 57 0 l 474 0 l 474 139 l 210 139 l 210 438 l 419 438 l 419 576 l 210 576 l 210 833 l 474 833 l 474 972 l 57 972 z "},"ê":{"ha":504,"x_min":0,"x_max":0,"o":"m 79 1038 l 194 1038 l 265 1114 l 336 1038 l 451 1038 l 338 1197 l 193 1197 z m 57 0 l 474 0 l 474 139 l 210 139 l 210 438 l 419 438 l 419 576 l 210 576 l 210 833 l 474 833 l 474 972 l 57 972 z "},"ë":{"ha":504,"x_min":0,"x_max":0,"o":"m 90 1038 l 226 1038 l 226 1179 l 90 1179 z m 304 1038 l 440 1038 l 440 1179 l 304 1179 z m 57 0 l 474 0 l 474 139 l 210 139 l 210 438 l 419 438 l 419 576 l 210 576 l 210 833 l 474 833 l 474 972 l 57 972 z "},"ė":{"ha":504,"x_min":0,"x_max":0,"o":"m 196 1038 l 335 1038 l 335 1179 l 196 1179 z m 57 0 l 474 0 l 474 139 l 210 139 l 210 438 l 419 438 l 419 576 l 210 576 l 210 833 l 474 833 l 474 972 l 57 972 z "},"è":{"ha":504,"x_min":0,"x_max":0,"o":"m 233 1038 l 349 1038 l 251 1197 l 85 1197 z m 57 0 l 474 0 l 474 139 l 210 139 l 210 438 l 419 438 l 419 576 l 210 576 l 210 833 l 474 833 l 474 972 l 57 972 z "},"ē":{"ha":504,"x_min":0,"x_max":0,"o":"m 106 1050 l 425 1050 l 425 1158 l 106 1158 z m 57 0 l 474 0 l 474 139 l 210 139 l 210 438 l 419 438 l 419 576 l 210 576 l 210 833 l 474 833 l 474 972 l 57 972 z "},"ę":{"ha":504,"x_min":0,"x_max":0,"o":"m 474 833 l 474 972 l 57 972 l 57 0 l 351 0 b 257 -118 288 -32 257 -74 b 379 -204 257 -175 304 -204 b 474 -189 418 -204 442 -201 l 474 -111 b 424 -119 458 -115 451 -119 b 375 -81 399 -119 375 -107 b 417 0 375 -61 382 -29 l 474 0 l 474 139 l 210 139 l 210 438 l 419 438 l 419 576 l 210 576 l 210 833 z "},"f":{"ha":478,"x_min":0,"x_max":0,"o":"m 57 0 l 210 0 l 210 424 l 407 424 l 407 563 l 210 563 l 210 833 l 461 833 l 461 972 l 57 972 z "},"ḟ":{"ha":478,"x_min":0,"x_max":0,"o":"m 185 1038 l 324 1038 l 324 1179 l 185 1179 z m 57 0 l 210 0 l 210 424 l 407 424 l 407 563 l 210 563 l 210 833 l 461 833 l 461 972 l 57 972 z "},"g":{"ha":543,"x_min":0,"x_max":0,"o":"m 274 -14 b 501 231 424 -14 501 75 l 501 549 l 281 549 l 281 410 l 357 410 l 357 219 b 278 125 357 150 326 125 b 199 219 229 125 199 150 l 199 751 b 278 847 199 821 229 847 b 357 751 326 847 357 821 l 357 658 l 501 658 l 501 742 b 274 986 501 897 424 986 b 46 742 124 986 46 897 l 46 231 b 274 -14 46 75 124 -14 z "},"ğ":{"ha":543,"x_min":0,"x_max":0,"o":"m 272 1032 b 438 1197 376 1032 435 1094 l 347 1197 b 272 1131 340 1144 313 1131 b 200 1197 233 1131 207 1144 l 110 1197 b 272 1032 114 1094 168 1032 z m 274 -14 b 501 231 424 -14 501 75 l 501 549 l 281 549 l 281 410 l 357 410 l 357 219 b 278 125 357 150 326 125 b 199 219 229 125 199 150 l 199 751 b 278 847 199 821 229 847 b 357 751 326 847 357 821 l 357 658 l 501 658 l 501 742 b 274 986 501 897 424 986 b 46 742 124 986 46 897 l 46 231 b 274 -14 46 75 124 -14 z "},"ĝ":{"ha":543,"x_min":0,"x_max":0,"o":"m 88 1038 l 203 1038 l 274 1114 l 344 1038 l 460 1038 l 346 1197 l 201 1197 z m 274 -14 b 501 231 424 -14 501 75 l 501 549 l 281 549 l 281 410 l 357 410 l 357 219 b 278 125 357 150 326 125 b 199 219 229 125 199 150 l 199 751 b 278 847 199 821 229 847 b 357 751 326 847 357 821 l 357 658 l 501 658 l 501 742 b 274 986 501 897 424 986 b 46 742 124 986 46 897 l 46 231 b 274 -14 46 75 124 -14 z "},"ģ":{"ha":543,"x_min":0,"x_max":0,"o":"m 274 -14 b 501 231 424 -14 501 75 l 501 549 l 281 549 l 281 410 l 357 410 l 357 219 b 278 125 357 150 326 125 b 199 219 229 125 199 150 l 199 751 b 278 847 199 821 229 847 b 357 751 326 847 357 821 l 357 658 l 501 658 l 501 742 b 274 986 501 897 424 986 b 46 742 124 986 46 897 l 46 231 b 274 -14 46 75 124 -14 z m 222 -262 l 276 -262 l 336 -174 l 336 -60 l 208 -60 l 208 -187 l 258 -187 z "},"ġ":{"ha":543,"x_min":0,"x_max":0,"o":"m 204 1038 l 343 1038 l 343 1179 l 204 1179 z m 274 -14 b 501 231 424 -14 501 75 l 501 549 l 281 549 l 281 410 l 357 410 l 357 219 b 278 125 357 150 326 125 b 199 219 229 125 199 150 l 199 751 b 278 847 199 821 229 847 b 357 751 326 847 357 821 l 357 658 l 501 658 l 501 742 b 274 986 501 897 424 986 b 46 742 124 986 46 897 l 46 231 b 274 -14 46 75 124 -14 z "},"h":{"ha":583,"x_min":0,"x_max":0,"o":"m 57 0 l 210 0 l 210 438 l 374 438 l 374 0 l 526 0 l 526 972 l 374 972 l 374 576 l 210 576 l 210 972 l 57 972 z "},"ħ":{"ha":608,"x_min":0,"x_max":0,"o":"m 594 838 l 539 838 l 539 972 l 386 972 l 386 838 l 222 838 l 222 972 l 69 972 l 69 838 l 14 838 l 14 713 l 69 713 l 69 0 l 222 0 l 222 438 l 386 438 l 386 0 l 539 0 l 539 713 l 594 713 z m 386 576 l 222 576 l 222 713 l 386 713 z "},"ĥ":{"ha":583,"x_min":0,"x_max":0,"o":"m 106 1038 l 221 1038 l 292 1114 l 363 1038 l 478 1038 l 364 1197 l 219 1197 z m 57 0 l 210 0 l 210 438 l 374 438 l 374 0 l 526 0 l 526 972 l 374 972 l 374 576 l 210 576 l 210 972 l 57 972 z "},"i":{"ha":267,"x_min":0,"x_max":0,"o":"m 57 0 l 210 0 l 210 972 l 57 972 z "},"ı":{"ha":267,"x_min":0,"x_max":0,"o":"m 57 0 l 210 0 l 210 972 l 57 972 z "},"í":{"ha":267,"x_min":0,"x_max":0,"o":"m 50 1038 l 165 1038 l 314 1197 l 147 1197 z m 57 0 l 210 0 l 210 972 l 57 972 z "},"ĭ":{"ha":267,"x_min":0,"x_max":0,"o":"m 132 1032 b 297 1197 236 1032 294 1094 l 207 1197 b 132 1131 200 1144 172 1131 b 60 1197 93 1131 67 1144 l -31 1197 b 132 1032 -26 1094 28 1032 z m 57 0 l 210 0 l 210 972 l 57 972 z "},"î":{"ha":267,"x_min":0,"x_max":0,"o":"m -53 1038 l 63 1038 l 133 1114 l 204 1038 l 319 1038 l 206 1197 l 61 1197 z m 57 0 l 210 0 l 210 972 l 57 972 z "},"ï":{"ha":267,"x_min":0,"x_max":0,"o":"m -42 1038 l 94 1038 l 94 1179 l -42 1179 z m 172 1038 l 308 1038 l 308 1179 l 172 1179 z m 57 0 l 210 0 l 210 972 l 57 972 z "},"ì":{"ha":267,"x_min":0,"x_max":0,"o":"m 101 1038 l 217 1038 l 119 1197 l -47 1197 z m 57 0 l 210 0 l 210 972 l 57 972 z "},"ĳ":{"ha":635,"x_min":0,"x_max":0,"o":"m 57 0 l 210 0 l 210 972 l 57 972 z m 360 -6 b 582 231 510 -6 582 71 l 582 972 l 429 972 l 429 226 b 339 133 429 163 400 133 b 289 139 322 133 306 135 l 289 0 b 360 -6 311 -4 332 -6 z "},"ī":{"ha":267,"x_min":0,"x_max":0,"o":"m -26 1050 l 293 1050 l 293 1158 l -26 1158 z m 57 0 l 210 0 l 210 972 l 57 972 z "},"į":{"ha":267,"x_min":0,"x_max":0,"o":"m 190 -119 b 142 -81 165 -119 142 -107 b 183 0 142 -61 149 -29 l 210 0 l 210 972 l 57 972 l 57 0 l 118 0 b 24 -118 54 -32 24 -74 b 146 -204 24 -175 71 -204 b 240 -189 185 -204 208 -201 l 240 -111 b 190 -119 225 -115 218 -119 z "},"ĩ":{"ha":267,"x_min":0,"x_max":0,"o":"m 14 1032 b 69 1086 32 1071 47 1086 b 117 1068 86 1086 100 1078 b 200 1042 138 1056 163 1042 b 326 1158 253 1042 292 1081 l 253 1203 b 197 1149 235 1164 219 1149 b 150 1167 181 1149 167 1157 b 67 1193 129 1179 104 1193 b -60 1076 14 1193 -25 1154 z m 57 0 l 210 0 l 210 972 l 57 972 z "},"j":{"ha":368,"x_min":0,"x_max":0,"o":"m 93 -6 b 315 231 243 -6 315 71 l 315 972 l 163 972 l 163 226 b 72 133 163 163 133 133 b 22 139 56 133 39 135 l 22 0 b 93 -6 44 -4 65 -6 z "},"ȷ":{"ha":368,"x_min":0,"x_max":0,"o":"m 93 -6 b 315 231 243 -6 315 71 l 315 972 l 163 972 l 163 226 b 72 133 163 163 133 133 b 22 139 56 133 39 135 l 22 0 b 93 -6 44 -4 65 -6 z "},"ĵ":{"ha":368,"x_min":0,"x_max":0,"o":"m 32 1038 l 147 1038 l 218 1114 l 289 1038 l 404 1038 l 290 1197 l 146 1197 z m 93 -6 b 315 231 243 -6 315 71 l 315 972 l 163 972 l 163 226 b 72 133 163 163 133 133 b 22 139 56 133 39 135 l 22 0 b 93 -6 44 -4 65 -6 z "},"k":{"ha":575,"x_min":0,"x_max":0,"o":"m 57 0 l 210 0 l 210 310 l 271 433 l 400 0 l 560 0 l 375 615 l 557 972 l 404 972 l 210 563 l 210 972 l 57 972 z "},"ķ":{"ha":575,"x_min":0,"x_max":0,"o":"m 57 0 l 210 0 l 210 310 l 271 433 l 400 0 l 560 0 l 375 615 l 557 972 l 404 972 l 210 563 l 210 972 l 57 972 z m 251 -262 l 306 -262 l 365 -174 l 365 -60 l 238 -60 l 238 -187 l 288 -187 z "},"ĸ":{"ha":575,"x_min":0,"x_max":0,"o":"m 57 0 l 210 0 l 210 310 l 271 433 l 400 0 l 560 0 l 375 615 l 557 972 l 404 972 l 210 563 l 210 972 l 57 972 z "},"l":{"ha":478,"x_min":0,"x_max":0,"o":"m 57 0 l 461 0 l 461 139 l 210 139 l 210 972 l 57 972 z "},"ĺ":{"ha":478,"x_min":0,"x_max":0,"o":"m 64 1038 l 179 1038 l 328 1197 l 161 1197 z m 57 0 l 461 0 l 461 139 l 210 139 l 210 972 l 57 972 z "},"ľ":{"ha":478,"x_min":0,"x_max":0,"o":"m 57 0 l 461 0 l 461 139 l 210 139 l 210 972 l 57 972 z m 306 686 l 368 686 l 432 846 l 432 972 l 290 972 l 290 831 l 346 831 z "},"ļ":{"ha":478,"x_min":0,"x_max":0,"o":"m 57 0 l 461 0 l 461 139 l 210 139 l 210 972 l 57 972 z m 210 -262 l 264 -262 l 324 -174 l 324 -60 l 196 -60 l 196 -187 l 246 -187 z "},"ŀ":{"ha":476,"x_min":0,"x_max":0,"o":"m 57 0 l 461 0 l 461 139 l 210 139 l 210 972 l 57 972 z m 297 413 l 444 413 l 444 560 l 297 560 z "},"ł":{"ha":506,"x_min":0,"x_max":0,"o":"m 238 139 l 238 386 l 403 563 l 403 729 l 238 553 l 238 972 l 85 972 l 85 389 l 14 313 l 14 146 l 85 222 l 85 0 l 489 0 l 489 139 z "},"m":{"ha":747,"x_min":0,"x_max":0,"o":"m 57 0 l 190 0 l 190 736 l 193 736 l 304 0 l 432 0 l 543 736 l 546 736 l 546 0 l 690 0 l 690 972 l 472 972 l 375 276 l 372 276 l 275 972 l 57 972 z "},"ṁ":{"ha":747,"x_min":0,"x_max":0,"o":"m 304 1038 l 443 1038 l 443 1179 l 304 1179 z m 57 0 l 190 0 l 190 736 l 193 736 l 304 0 l 432 0 l 543 736 l 546 736 l 546 0 l 690 0 l 690 972 l 472 972 l 375 276 l 372 276 l 275 972 l 57 972 z "},"n":{"ha":593,"x_min":0,"x_max":0,"o":"m 57 0 l 193 0 l 193 710 l 196 710 l 379 0 l 536 0 l 536 972 l 400 972 l 400 390 l 397 390 l 249 972 l 57 972 z "},"ń":{"ha":593,"x_min":0,"x_max":0,"o":"m 214 1038 l 329 1038 l 478 1197 l 311 1197 z m 57 0 l 193 0 l 193 710 l 196 710 l 379 0 l 536 0 l 536 972 l 400 972 l 400 390 l 397 390 l 249 972 l 57 972 z "},"ŉ":{"ha":753,"x_min":0,"x_max":0,"o":"m 24 686 l 86 686 l 153 840 l 153 972 l 6 972 l 6 825 l 64 825 z m 217 0 l 353 0 l 353 710 l 356 710 l 539 0 l 696 0 l 696 972 l 560 972 l 560 390 l 557 390 l 408 972 l 217 972 z "},"ň":{"ha":593,"x_min":0,"x_max":0,"o":"m 225 1038 l 369 1038 l 483 1197 l 368 1197 l 297 1121 l 226 1197 l 111 1197 z m 57 0 l 193 0 l 193 710 l 196 710 l 379 0 l 536 0 l 536 972 l 400 972 l 400 390 l 397 390 l 249 972 l 57 972 z "},"ņ":{"ha":593,"x_min":0,"x_max":0,"o":"m 57 0 l 193 0 l 193 710 l 196 710 l 379 0 l 536 0 l 536 972 l 400 972 l 400 390 l 397 390 l 249 972 l 57 972 z m 247 -262 l 301 -262 l 361 -174 l 361 -60 l 233 -60 l 233 -187 l 283 -187 z "},"ŋ":{"ha":593,"x_min":0,"x_max":0,"o":"m 331 -236 b 536 -3 464 -236 536 -160 l 536 972 l 400 972 l 400 422 l 397 422 l 249 972 l 57 972 l 57 0 l 193 0 l 193 726 l 196 726 l 375 64 b 389 -25 386 25 389 6 b 317 -104 389 -85 353 -104 b 263 -99 296 -104 279 -103 l 263 -231 b 331 -236 285 -235 306 -236 z "},"ñ":{"ha":593,"x_min":0,"x_max":0,"o":"m 178 1032 b 233 1086 196 1071 211 1086 b 281 1068 250 1086 264 1078 b 364 1042 301 1056 326 1042 b 490 1158 417 1042 456 1081 l 417 1203 b 361 1149 399 1164 383 1149 b 314 1167 344 1149 331 1157 b 231 1193 293 1179 268 1193 b 104 1076 178 1193 139 1154 z m 57 0 l 193 0 l 193 710 l 196 710 l 379 0 l 536 0 l 536 972 l 400 972 l 400 390 l 397 390 l 249 972 l 57 972 z "},"o":{"ha":556,"x_min":0,"x_max":0,"o":"m 278 -14 b 510 231 428 -14 510 75 l 510 742 b 278 986 510 897 428 986 b 46 742 128 986 46 897 l 46 231 b 278 -14 46 75 128 -14 z m 278 125 b 199 221 229 125 199 151 l 199 751 b 278 847 199 821 229 847 b 357 751 326 847 357 821 l 357 221 b 278 125 357 151 326 125 z "},"ó":{"ha":556,"x_min":0,"x_max":0,"o":"m 194 1038 l 310 1038 l 458 1197 l 292 1197 z m 278 -14 b 510 231 428 -14 510 75 l 510 742 b 278 986 510 897 428 986 b 46 742 128 986 46 897 l 46 231 b 278 -14 46 75 128 -14 z m 278 125 b 199 221 229 125 199 151 l 199 751 b 278 847 199 821 229 847 b 357 751 326 847 357 821 l 357 221 b 278 125 357 151 326 125 z "},"ŏ":{"ha":556,"x_min":0,"x_max":0,"o":"m 276 1032 b 442 1197 381 1032 439 1094 l 351 1197 b 276 1131 344 1144 317 1131 b 204 1197 238 1131 211 1144 l 114 1197 b 276 1032 118 1094 172 1032 z m 278 -14 b 510 231 428 -14 510 75 l 510 742 b 278 986 510 897 428 986 b 46 742 128 986 46 897 l 46 231 b 278 -14 46 75 128 -14 z m 278 125 b 199 221 229 125 199 151 l 199 751 b 278 847 199 821 229 847 b 357 751 326 847 357 821 l 357 221 b 278 125 357 151 326 125 z "},"ô":{"ha":556,"x_min":0,"x_max":0,"o":"m 92 1038 l 207 1038 l 278 1114 l 349 1038 l 464 1038 l 350 1197 l 206 1197 z m 278 -14 b 510 231 428 -14 510 75 l 510 742 b 278 986 510 897 428 986 b 46 742 128 986 46 897 l 46 231 b 278 -14 46 75 128 -14 z m 278 125 b 199 221 229 125 199 151 l 199 751 b 278 847 199 821 229 847 b 357 751 326 847 357 821 l 357 221 b 278 125 357 151 326 125 z "},"ö":{"ha":556,"x_min":0,"x_max":0,"o":"m 103 1038 l 239 1038 l 239 1179 l 103 1179 z m 317 1038 l 453 1038 l 453 1179 l 317 1179 z m 278 -14 b 510 231 428 -14 510 75 l 510 742 b 278 986 510 897 428 986 b 46 742 128 986 46 897 l 46 231 b 278 -14 46 75 128 -14 z m 278 125 b 199 221 229 125 199 151 l 199 751 b 278 847 199 821 229 847 b 357 751 326 847 357 821 l 357 221 b 278 125 357 151 326 125 z "},"ò":{"ha":556,"x_min":0,"x_max":0,"o":"m 246 1038 l 361 1038 l 264 1197 l 97 1197 z m 278 -14 b 510 231 428 -14 510 75 l 510 742 b 278 986 510 897 428 986 b 46 742 128 986 46 897 l 46 231 b 278 -14 46 75 128 -14 z m 278 125 b 199 221 229 125 199 151 l 199 751 b 278 847 199 821 229 847 b 357 751 326 847 357 821 l 357 221 b 278 125 357 151 326 125 z "},"ő":{"ha":556,"x_min":0,"x_max":0,"o":"m 92 1038 l 199 1038 l 343 1197 l 189 1197 z m 299 1038 l 406 1038 l 550 1197 l 396 1197 z m 278 -14 b 510 231 428 -14 510 75 l 510 742 b 278 986 510 897 428 986 b 46 742 128 986 46 897 l 46 231 b 278 -14 46 75 128 -14 z m 278 125 b 199 221 229 125 199 151 l 199 751 b 278 847 199 821 229 847 b 357 751 326 847 357 821 l 357 221 b 278 125 357 151 326 125 z "},"ō":{"ha":556,"x_min":0,"x_max":0,"o":"m 118 1050 l 438 1050 l 438 1158 l 118 1158 z m 278 -14 b 510 231 428 -14 510 75 l 510 742 b 278 986 510 897 428 986 b 46 742 128 986 46 897 l 46 231 b 278 -14 46 75 128 -14 z m 278 125 b 199 221 229 125 199 151 l 199 751 b 278 847 199 821 229 847 b 357 751 326 847 357 821 l 357 221 b 278 125 357 151 326 125 z "},"ø":{"ha":556,"x_min":0,"x_max":0,"o":"m 524 972 l 440 1008 l 417 950 b 278 986 381 974 333 986 b 46 742 128 986 46 897 l 46 231 b 72 99 46 179 54 135 l 32 0 l 115 -36 l 139 22 b 278 -14 175 -1 222 -14 b 510 231 428 -14 510 75 l 510 742 b 483 874 510 793 501 838 z m 199 751 b 278 847 199 821 229 847 b 353 792 315 847 343 832 l 199 411 z m 357 221 b 278 125 357 151 326 125 b 203 181 240 125 213 140 l 357 561 z "},"ǿ":{"ha":556,"x_min":0,"x_max":0,"o":"m 458 1197 l 292 1197 l 194 1038 l 310 1038 z m 524 972 l 440 1008 l 417 950 b 278 986 381 974 333 986 b 46 742 128 986 46 897 l 46 231 b 72 99 46 179 54 135 l 32 0 l 115 -36 l 139 22 b 278 -14 175 -1 222 -14 b 510 231 428 -14 510 75 l 510 742 b 483 874 510 793 501 838 z m 199 751 b 278 847 199 821 229 847 b 353 792 315 847 343 832 l 199 411 z m 357 221 b 278 125 357 151 326 125 b 203 181 240 125 213 140 l 357 561 z "},"õ":{"ha":556,"x_min":0,"x_max":0,"o":"m 158 1032 b 214 1086 176 1071 192 1086 b 261 1068 231 1086 244 1078 b 344 1042 282 1056 307 1042 b 471 1158 397 1042 436 1081 l 397 1203 b 342 1149 379 1164 364 1149 b 294 1167 325 1149 311 1157 b 211 1193 274 1179 249 1193 b 85 1076 158 1193 119 1154 z m 278 -14 b 510 231 428 -14 510 75 l 510 742 b 278 986 510 897 428 986 b 46 742 128 986 46 897 l 46 231 b 278 -14 46 75 128 -14 z m 278 125 b 199 221 229 125 199 151 l 199 751 b 278 847 199 821 229 847 b 357 751 326 847 357 821 l 357 221 b 278 125 357 151 326 125 z "},"œ":{"ha":801,"x_min":0,"x_max":0,"o":"m 274 0 l 771 0 l 771 139 l 507 139 l 507 438 l 717 438 l 717 576 l 507 576 l 507 833 l 771 833 l 771 972 l 274 972 b 46 732 121 972 46 888 l 46 240 b 274 0 46 85 121 0 z m 276 139 b 199 233 228 139 199 164 l 199 739 b 276 833 199 808 228 833 l 354 833 l 354 139 z "},"p":{"ha":536,"x_min":0,"x_max":0,"o":"m 57 0 l 210 0 l 210 396 l 282 396 b 510 636 435 396 510 481 l 510 732 b 282 972 510 888 435 972 l 57 972 z m 210 535 l 210 833 l 282 833 b 357 742 331 833 357 811 l 357 626 b 282 535 357 557 331 535 z "},"ṗ":{"ha":536,"x_min":0,"x_max":0,"o":"m 196 1038 l 335 1038 l 335 1179 l 196 1179 z m 57 0 l 210 0 l 210 396 l 282 396 b 510 636 435 396 510 481 l 510 732 b 282 972 510 888 435 972 l 57 972 z m 210 535 l 210 833 l 282 833 b 357 742 331 833 357 811 l 357 626 b 282 535 357 557 331 535 z "},"þ":{"ha":536,"x_min":0,"x_max":0,"o":"m 57 0 l 210 0 l 210 258 l 282 258 b 510 499 435 258 510 343 l 510 594 b 282 835 510 750 435 835 l 210 835 l 210 972 l 57 972 z m 210 397 l 210 696 l 282 696 b 357 604 331 696 357 674 l 357 489 b 282 397 357 419 331 397 z "},"q":{"ha":556,"x_min":0,"x_max":0,"o":"m 507 -90 l 547 -90 l 547 49 l 524 49 b 467 71 496 49 478 51 b 510 231 494 111 510 164 l 510 742 b 278 986 510 897 428 986 b 46 742 128 986 46 897 l 46 231 b 278 -14 46 75 128 -14 b 379 3 315 -14 350 -8 b 507 -90 397 -69 450 -90 z m 278 125 b 199 221 229 125 199 151 l 199 751 b 278 847 199 821 229 847 b 357 751 326 847 357 821 l 357 221 b 278 125 357 151 326 125 z "},"r":{"ha":560,"x_min":0,"x_max":0,"o":"m 57 0 l 210 0 l 210 417 l 263 417 b 358 297 332 417 358 388 l 358 119 b 372 0 358 40 364 25 l 528 0 b 511 118 513 36 511 71 l 511 289 b 410 494 511 399 486 471 l 410 497 b 510 689 478 525 510 589 l 510 749 b 283 972 510 899 442 972 l 57 972 z m 210 556 l 210 833 l 279 833 b 357 733 333 833 357 803 l 357 658 b 265 556 357 581 322 556 z "},"ŕ":{"ha":560,"x_min":0,"x_max":0,"o":"m 185 1038 l 300 1038 l 449 1197 l 282 1197 z m 57 0 l 210 0 l 210 417 l 263 417 b 358 297 332 417 358 388 l 358 119 b 372 0 358 40 364 25 l 528 0 b 511 118 513 36 511 71 l 511 289 b 410 494 511 399 486 471 l 410 497 b 510 689 478 525 510 589 l 510 749 b 283 972 510 899 442 972 l 57 972 z m 210 556 l 210 833 l 279 833 b 357 733 333 833 357 803 l 357 658 b 265 556 357 581 322 556 z "},"ř":{"ha":560,"x_min":0,"x_max":0,"o":"m 196 1038 l 340 1038 l 454 1197 l 339 1197 l 268 1121 l 197 1197 l 82 1197 z m 57 0 l 210 0 l 210 417 l 263 417 b 358 297 332 417 358 388 l 358 119 b 372 0 358 40 364 25 l 528 0 b 511 118 513 36 511 71 l 511 289 b 410 494 511 399 486 471 l 410 497 b 510 689 478 525 510 589 l 510 749 b 283 972 510 899 442 972 l 57 972 z m 210 556 l 210 833 l 279 833 b 357 733 333 833 357 803 l 357 658 b 265 556 357 581 322 556 z "},"ŗ":{"ha":560,"x_min":0,"x_max":0,"o":"m 57 0 l 210 0 l 210 417 l 263 417 b 358 297 332 417 358 388 l 358 119 b 372 0 358 40 364 25 l 528 0 b 511 118 513 36 511 71 l 511 289 b 410 494 511 399 486 471 l 410 497 b 510 689 478 525 510 589 l 510 749 b 283 972 510 899 442 972 l 57 972 z m 210 556 l 210 833 l 279 833 b 357 733 333 833 357 803 l 357 658 b 265 556 357 581 322 556 z m 232 -262 l 286 -262 l 346 -174 l 346 -60 l 218 -60 l 218 -187 l 268 -187 z "},"s":{"ha":517,"x_min":0,"x_max":0,"o":"m 256 -14 b 486 233 406 -14 486 75 b 318 544 486 354 446 432 b 186 754 218 632 186 683 b 263 847 186 821 214 847 b 339 751 311 847 339 821 l 339 701 l 483 701 l 483 742 b 261 986 483 897 410 986 b 33 744 113 986 33 897 b 203 442 33 633 75 554 b 333 222 303 354 333 303 b 254 125 333 150 303 125 b 175 219 206 125 175 150 l 175 286 l 31 286 l 31 231 b 256 -14 31 75 106 -14 z "},"ś":{"ha":517,"x_min":0,"x_max":0,"o":"m 175 1038 l 290 1038 l 439 1197 l 272 1197 z m 256 -14 b 486 233 406 -14 486 75 b 318 544 486 354 446 432 b 186 754 218 632 186 683 b 263 847 186 821 214 847 b 339 751 311 847 339 821 l 339 701 l 483 701 l 483 742 b 261 986 483 897 410 986 b 33 744 113 986 33 897 b 203 442 33 633 75 554 b 333 222 303 354 333 303 b 254 125 333 150 303 125 b 175 219 206 125 175 150 l 175 286 l 31 286 l 31 231 b 256 -14 31 75 106 -14 z "},"š":{"ha":517,"x_min":0,"x_max":0,"o":"m 186 1038 l 331 1038 l 444 1197 l 329 1197 l 258 1121 l 188 1197 l 72 1197 z m 256 -14 b 486 233 406 -14 486 75 b 318 544 486 354 446 432 b 186 754 218 632 186 683 b 263 847 186 821 214 847 b 339 751 311 847 339 821 l 339 701 l 483 701 l 483 742 b 261 986 483 897 410 986 b 33 744 113 986 33 897 b 203 442 33 633 75 554 b 333 222 303 354 333 303 b 254 125 333 150 303 125 b 175 219 206 125 175 150 l 175 286 l 31 286 l 31 231 b 256 -14 31 75 106 -14 z "},"ş":{"ha":517,"x_min":0,"x_max":0,"o":"m 486 233 b 318 544 486 354 446 432 b 186 754 218 632 186 683 b 263 847 186 821 214 847 b 339 751 311 847 339 821 l 339 701 l 483 701 l 483 742 b 261 986 483 897 410 986 b 33 744 113 986 33 897 b 203 442 33 633 75 554 b 333 222 303 354 333 303 b 254 125 333 150 303 125 b 175 219 206 125 175 150 l 175 286 l 31 286 l 31 231 b 225 -12 31 86 96 -1 l 225 -79 l 232 -79 b 283 -115 267 -79 283 -89 b 247 -149 283 -139 272 -149 b 217 -121 232 -149 217 -142 l 217 -110 l 114 -110 l 114 -124 b 247 -204 114 -187 171 -204 b 389 -119 331 -204 389 -194 b 293 -54 389 -71 354 -54 l 293 -12 b 486 233 419 1 486 89 z "},"ŝ":{"ha":517,"x_min":0,"x_max":0,"o":"m 72 1038 l 188 1038 l 258 1114 l 329 1038 l 444 1038 l 331 1197 l 186 1197 z m 256 -14 b 486 233 406 -14 486 75 b 318 544 486 354 446 432 b 186 754 218 632 186 683 b 263 847 186 821 214 847 b 339 751 311 847 339 821 l 339 701 l 483 701 l 483 742 b 261 986 483 897 410 986 b 33 744 113 986 33 897 b 203 442 33 633 75 554 b 333 222 303 354 333 303 b 254 125 333 150 303 125 b 175 219 206 125 175 150 l 175 286 l 31 286 l 31 231 b 256 -14 31 75 106 -14 z "},"ș":{"ha":517,"x_min":0,"x_max":0,"o":"m 256 -14 b 486 233 406 -14 486 75 b 318 544 486 354 446 432 b 186 754 218 632 186 683 b 263 847 186 821 214 847 b 339 751 311 847 339 821 l 339 701 l 483 701 l 483 742 b 261 986 483 897 410 986 b 33 744 113 986 33 897 b 203 442 33 633 75 554 b 333 222 303 354 333 303 b 254 125 333 150 303 125 b 175 219 206 125 175 150 l 175 286 l 31 286 l 31 231 b 256 -14 31 75 106 -14 z m 208 -262 l 263 -262 l 322 -174 l 322 -60 l 194 -60 l 194 -187 l 244 -187 z "},"ṡ":{"ha":517,"x_min":0,"x_max":0,"o":"m 189 1038 l 328 1038 l 328 1179 l 189 1179 z m 256 -14 b 486 233 406 -14 486 75 b 318 544 486 354 446 432 b 186 754 218 632 186 683 b 263 847 186 821 214 847 b 339 751 311 847 339 821 l 339 701 l 483 701 l 483 742 b 261 986 483 897 410 986 b 33 744 113 986 33 897 b 203 442 33 633 75 554 b 333 222 303 354 333 303 b 254 125 333 150 303 125 b 175 219 206 125 175 150 l 175 286 l 31 286 l 31 231 b 256 -14 31 75 106 -14 z "},"ß":{"ha":565,"x_min":0,"x_max":0,"o":"m 57 0 l 210 0 l 210 833 l 371 833 l 269 581 l 269 451 l 307 451 b 382 360 356 451 382 429 l 382 231 b 307 139 382 161 356 139 l 269 139 l 269 0 l 307 0 b 535 240 460 0 535 85 l 535 350 b 414 574 535 469 499 547 l 521 836 l 521 972 l 57 972 z "},"t":{"ha":506,"x_min":0,"x_max":0,"o":"m 176 0 l 329 0 l 329 833 l 489 833 l 489 972 l 17 972 l 17 833 l 176 833 z "},"ŧ":{"ha":506,"x_min":0,"x_max":0,"o":"m 489 833 l 489 972 l 17 972 l 17 833 l 176 833 l 176 576 l 71 576 l 71 438 l 176 438 l 176 0 l 329 0 l 329 438 l 435 438 l 435 576 l 329 576 l 329 833 z "},"ť":{"ha":506,"x_min":0,"x_max":0,"o":"m 181 1038 l 325 1038 l 439 1197 l 324 1197 l 253 1121 l 182 1197 l 67 1197 z m 176 0 l 329 0 l 329 833 l 489 833 l 489 972 l 17 972 l 17 833 l 176 833 z "},"ţ":{"ha":506,"x_min":0,"x_max":0,"o":"m 329 0 l 329 833 l 489 833 l 489 972 l 17 972 l 17 833 l 176 833 l 176 0 l 219 0 l 219 -79 l 226 -79 b 278 -115 261 -79 278 -89 b 242 -149 278 -139 267 -149 b 211 -121 226 -149 211 -142 l 211 -110 l 108 -110 l 108 -124 b 242 -204 108 -187 165 -204 b 383 -119 325 -204 383 -194 b 288 -54 383 -71 349 -54 l 288 0 z "},"ț":{"ha":506,"x_min":0,"x_max":0,"o":"m 176 0 l 329 0 l 329 833 l 489 833 l 489 972 l 17 972 l 17 833 l 176 833 z m 203 -262 l 257 -262 l 317 -174 l 317 -60 l 189 -60 l 189 -187 l 239 -187 z "},"ṫ":{"ha":506,"x_min":0,"x_max":0,"o":"m 183 1038 l 322 1038 l 322 1179 l 183 1179 z m 176 0 l 329 0 l 329 833 l 489 833 l 489 972 l 17 972 l 17 833 l 176 833 z "},"u":{"ha":558,"x_min":0,"x_max":0,"o":"m 279 -14 b 507 231 429 -14 507 75 l 507 972 l 360 972 l 360 219 b 282 125 360 150 331 125 b 204 219 233 125 204 150 l 204 972 l 51 972 l 51 231 b 279 -14 51 75 129 -14 z "},"ú":{"ha":558,"x_min":0,"x_max":0,"o":"m 196 1038 l 311 1038 l 460 1197 l 293 1197 z m 279 -14 b 507 231 429 -14 507 75 l 507 972 l 360 972 l 360 219 b 282 125 360 150 331 125 b 204 219 233 125 204 150 l 204 972 l 51 972 l 51 231 b 279 -14 51 75 129 -14 z "},"ŭ":{"ha":558,"x_min":0,"x_max":0,"o":"m 278 1032 b 443 1197 382 1032 440 1094 l 353 1197 b 278 1131 346 1144 318 1131 b 206 1197 239 1131 213 1144 l 115 1197 b 278 1032 119 1094 174 1032 z m 279 -14 b 507 231 429 -14 507 75 l 507 972 l 360 972 l 360 219 b 282 125 360 150 331 125 b 204 219 233 125 204 150 l 204 972 l 51 972 l 51 231 b 279 -14 51 75 129 -14 z "},"û":{"ha":558,"x_min":0,"x_max":0,"o":"m 93 1038 l 208 1038 l 279 1114 l 350 1038 l 465 1038 l 351 1197 l 207 1197 z m 279 -14 b 507 231 429 -14 507 75 l 507 972 l 360 972 l 360 219 b 282 125 360 150 331 125 b 204 219 233 125 204 150 l 204 972 l 51 972 l 51 231 b 279 -14 51 75 129 -14 z "},"ü":{"ha":558,"x_min":0,"x_max":0,"o":"m 104 1038 l 240 1038 l 240 1179 l 104 1179 z m 318 1038 l 454 1038 l 454 1179 l 318 1179 z m 279 -14 b 507 231 429 -14 507 75 l 507 972 l 360 972 l 360 219 b 282 125 360 150 331 125 b 204 219 233 125 204 150 l 204 972 l 51 972 l 51 231 b 279 -14 51 75 129 -14 z "},"ù":{"ha":558,"x_min":0,"x_max":0,"o":"m 247 1038 l 363 1038 l 265 1197 l 99 1197 z m 279 -14 b 507 231 429 -14 507 75 l 507 972 l 360 972 l 360 219 b 282 125 360 150 331 125 b 204 219 233 125 204 150 l 204 972 l 51 972 l 51 231 b 279 -14 51 75 129 -14 z "},"ű":{"ha":558,"x_min":0,"x_max":0,"o":"m 93 1038 l 200 1038 l 344 1197 l 190 1197 z m 300 1038 l 407 1038 l 551 1197 l 397 1197 z m 279 -14 b 507 231 429 -14 507 75 l 507 972 l 360 972 l 360 219 b 282 125 360 150 331 125 b 204 219 233 125 204 150 l 204 972 l 51 972 l 51 231 b 279 -14 51 75 129 -14 z "},"ū":{"ha":558,"x_min":0,"x_max":0,"o":"m 119 1050 l 439 1050 l 439 1158 l 119 1158 z m 279 -14 b 507 231 429 -14 507 75 l 507 972 l 360 972 l 360 219 b 282 125 360 150 331 125 b 204 219 233 125 204 150 l 204 972 l 51 972 l 51 231 b 279 -14 51 75 129 -14 z "},"ų":{"ha":558,"x_min":0,"x_max":0,"o":"m 360 972 l 360 219 b 282 125 360 150 331 125 b 204 219 233 125 204 150 l 204 972 l 51 972 l 51 231 b 267 -14 51 79 125 -8 b 196 -118 219 -43 196 -79 b 318 -204 196 -175 243 -204 b 413 -189 357 -204 381 -201 l 413 -111 b 363 -119 397 -115 390 -119 b 314 -81 338 -119 314 -107 b 349 -7 314 -62 321 -33 b 507 231 453 18 507 101 l 507 972 z "},"ů":{"ha":558,"x_min":0,"x_max":0,"o":"m 279 1022 b 403 1144 350 1022 403 1076 b 279 1267 403 1213 350 1267 b 156 1144 208 1267 156 1213 b 279 1022 156 1076 208 1022 z m 279 1096 b 235 1144 254 1096 235 1115 b 279 1193 235 1174 254 1193 b 324 1144 304 1193 324 1174 b 279 1096 324 1115 304 1096 z m 279 -14 b 507 231 429 -14 507 75 l 507 972 l 360 972 l 360 219 b 282 125 360 150 331 125 b 204 219 233 125 204 150 l 204 972 l 51 972 l 51 231 b 279 -14 51 75 129 -14 z "},"ũ":{"ha":558,"x_min":0,"x_max":0,"o":"m 160 1032 b 215 1086 178 1071 193 1086 b 263 1068 232 1086 246 1078 b 346 1042 283 1056 308 1042 b 472 1158 399 1042 438 1081 l 399 1203 b 343 1149 381 1164 365 1149 b 296 1167 326 1149 313 1157 b 213 1193 275 1179 250 1193 b 86 1076 160 1193 121 1154 z m 279 -14 b 507 231 429 -14 507 75 l 507 972 l 360 972 l 360 219 b 282 125 360 150 331 125 b 204 219 233 125 204 150 l 204 972 l 51 972 l 51 231 b 279 -14 51 75 129 -14 z "},"v":{"ha":531,"x_min":0,"x_max":0,"o":"m 164 0 l 367 0 l 514 972 l 374 972 l 274 218 l 271 218 l 171 972 l 17 972 z "},"w":{"ha":774,"x_min":0,"x_max":0,"o":"m 119 0 l 322 0 l 392 656 l 394 656 l 464 0 l 654 0 l 753 972 l 621 972 l 553 225 l 550 225 l 478 972 l 311 972 l 239 225 l 236 225 l 168 972 l 21 972 z "},"ẃ":{"ha":774,"x_min":0,"x_max":0,"o":"m 304 1038 l 419 1038 l 568 1197 l 401 1197 z m 119 0 l 322 0 l 392 656 l 394 656 l 464 0 l 654 0 l 753 972 l 621 972 l 553 225 l 550 225 l 478 972 l 311 972 l 239 225 l 236 225 l 168 972 l 21 972 z "},"ŵ":{"ha":774,"x_min":0,"x_max":0,"o":"m 201 1038 l 317 1038 l 388 1114 l 458 1038 l 574 1038 l 460 1197 l 315 1197 z m 119 0 l 322 0 l 392 656 l 394 656 l 464 0 l 654 0 l 753 972 l 621 972 l 553 225 l 550 225 l 478 972 l 311 972 l 239 225 l 236 225 l 168 972 l 21 972 z "},"ẅ":{"ha":774,"x_min":0,"x_max":0,"o":"m 213 1038 l 349 1038 l 349 1179 l 213 1179 z m 426 1038 l 563 1038 l 563 1179 l 426 1179 z m 119 0 l 322 0 l 392 656 l 394 656 l 464 0 l 654 0 l 753 972 l 621 972 l 553 225 l 550 225 l 478 972 l 311 972 l 239 225 l 236 225 l 168 972 l 21 972 z "},"ẁ":{"ha":774,"x_min":0,"x_max":0,"o":"m 356 1038 l 471 1038 l 374 1197 l 207 1197 z m 119 0 l 322 0 l 392 656 l 394 656 l 464 0 l 654 0 l 753 972 l 621 972 l 553 225 l 550 225 l 478 972 l 311 972 l 239 225 l 236 225 l 168 972 l 21 972 z "},"x":{"ha":564,"x_min":0,"x_max":0,"o":"m 15 0 l 160 0 l 274 339 l 276 339 l 388 0 l 549 0 l 372 497 l 540 972 l 396 972 l 290 658 l 288 658 l 185 972 l 24 972 l 192 497 z "},"y":{"ha":547,"x_min":0,"x_max":0,"o":"m 197 0 l 350 0 l 350 414 l 535 972 l 386 972 l 282 615 l 279 615 l 175 972 l 13 972 l 197 414 z "},"ý":{"ha":547,"x_min":0,"x_max":0,"o":"m 190 1038 l 306 1038 l 454 1197 l 288 1197 z m 197 0 l 350 0 l 350 414 l 535 972 l 386 972 l 282 615 l 279 615 l 175 972 l 13 972 l 197 414 z "},"ŷ":{"ha":547,"x_min":0,"x_max":0,"o":"m 88 1038 l 203 1038 l 274 1114 l 344 1038 l 460 1038 l 346 1197 l 201 1197 z m 197 0 l 350 0 l 350 414 l 535 972 l 386 972 l 282 615 l 279 615 l 175 972 l 13 972 l 197 414 z "},"ÿ":{"ha":547,"x_min":0,"x_max":0,"o":"m 99 1038 l 235 1038 l 235 1179 l 99 1179 z m 313 1038 l 449 1038 l 449 1179 l 313 1179 z m 197 0 l 350 0 l 350 414 l 535 972 l 386 972 l 282 615 l 279 615 l 175 972 l 13 972 l 197 414 z "},"ỳ":{"ha":547,"x_min":0,"x_max":0,"o":"m 242 1038 l 357 1038 l 260 1197 l 93 1197 z m 197 0 l 350 0 l 350 414 l 535 972 l 386 972 l 282 615 l 279 615 l 175 972 l 13 972 l 197 414 z "},"z":{"ha":503,"x_min":0,"x_max":0,"o":"m 26 0 l 474 0 l 474 139 l 190 139 l 474 836 l 474 972 l 40 972 l 40 833 l 310 833 l 26 136 z "},"ź":{"ha":503,"x_min":0,"x_max":0,"o":"m 174 1038 l 289 1038 l 438 1197 l 271 1197 z m 26 0 l 474 0 l 474 139 l 190 139 l 474 836 l 474 972 l 40 972 l 40 833 l 310 833 l 26 136 z "},"ž":{"ha":503,"x_min":0,"x_max":0,"o":"m 185 1038 l 329 1038 l 443 1197 l 328 1197 l 257 1121 l 186 1197 l 71 1197 z m 26 0 l 474 0 l 474 139 l 190 139 l 474 836 l 474 972 l 40 972 l 40 833 l 310 833 l 26 136 z "},"ż":{"ha":503,"x_min":0,"x_max":0,"o":"m 188 1038 l 326 1038 l 326 1179 l 188 1179 z m 26 0 l 474 0 l 474 139 l 190 139 l 474 836 l 474 972 l 40 972 l 40 833 l 310 833 l 26 136 z "},"ª":{"ha":389,"x_min":0,"x_max":0,"o":"m 150 463 b 247 536 193 463 225 488 l 250 536 l 254 469 l 336 469 l 336 832 b 199 986 336 929 292 986 b 58 832 100 986 58 929 l 58 819 l 150 819 l 150 838 b 197 897 150 882 165 897 b 239 846 225 897 239 882 l 239 772 b 42 601 103 767 42 714 l 42 596 b 150 463 42 511 78 463 z m 185 551 b 139 604 157 551 139 567 l 139 617 b 239 700 139 671 171 697 l 239 601 b 185 551 232 564 213 551 z m 42 297 l 336 297 l 336 392 l 42 392 z "},"º":{"ha":392,"x_min":0,"x_max":0,"o":"m 196 463 b 343 617 292 463 343 519 l 343 832 b 196 986 343 929 292 986 b 49 832 100 986 49 929 l 49 617 b 196 463 49 519 100 463 z m 196 551 b 146 611 164 551 146 567 l 146 838 b 196 897 146 882 164 897 b 246 838 226 897 246 882 l 246 611 b 196 551 246 567 226 551 z m 49 297 l 343 297 l 343 392 l 49 392 z "},"Δ":{"ha":557,"x_min":0,"x_max":0,"o":"m 17 0 l 540 0 l 382 972 l 175 972 z m 178 139 l 271 789 l 274 789 l 367 139 z "},"Ω":{"ha":558,"x_min":0,"x_max":0,"o":"m 47 0 l 257 0 l 257 139 b 200 404 211 219 200 289 l 200 751 b 279 847 200 821 231 847 b 358 751 328 847 358 821 l 358 404 b 301 139 358 289 347 219 l 301 0 l 511 0 l 511 139 l 400 139 l 400 142 b 511 469 478 228 511 315 l 511 742 b 279 986 511 897 429 986 b 47 742 129 986 47 897 l 47 469 b 158 142 47 314 81 228 l 158 139 l 47 139 z "},"μ":{"ha":563,"x_min":0,"x_max":0,"o":"m 57 -222 l 210 -222 l 210 -6 l 243 -6 b 376 72 300 -6 349 24 l 376 0 l 515 0 l 515 694 l 363 694 l 363 224 b 282 128 363 154 328 128 b 210 207 236 128 210 151 l 210 694 l 57 694 z "},"π":{"ha":628,"x_min":0,"x_max":0,"o":"m 103 0 l 256 0 l 256 556 l 372 556 l 372 0 l 525 0 l 525 556 l 608 556 l 608 694 l 19 694 l 19 556 l 103 556 z "},"₀":{"ha":392,"x_min":0,"x_max":0,"o":"m 196 -104 b 343 51 292 -104 343 -49 l 343 385 b 196 540 343 485 292 540 b 49 385 100 540 49 485 l 49 51 b 196 -104 49 -49 100 -104 z m 196 -17 b 146 44 164 -17 146 1 l 146 392 b 196 453 146 435 164 453 b 246 392 226 453 246 435 l 246 44 b 196 -17 246 1 226 -17 z "},"₁":{"ha":392,"x_min":0,"x_max":0,"o":"m 183 -90 l 281 -90 l 281 526 l 217 526 b 81 449 192 467 161 449 l 81 381 l 183 381 z "},"₂":{"ha":392,"x_min":0,"x_max":0,"o":"m 53 -90 l 333 -90 l 333 -3 l 149 -3 l 149 14 b 222 153 149 58 163 89 b 342 390 313 249 342 313 b 197 540 342 486 292 540 b 53 386 103 540 53 486 l 53 335 l 144 335 l 144 392 b 194 453 144 432 161 453 b 244 388 229 453 244 432 b 149 200 244 324 221 275 b 53 -21 75 122 53 68 z "},"₃":{"ha":392,"x_min":0,"x_max":0,"o":"m 192 -104 b 336 51 288 -104 336 -49 l 336 103 b 268 232 336 165 317 211 l 268 235 b 336 358 315 256 336 294 l 336 385 b 192 540 336 485 288 540 b 47 385 96 540 47 485 l 47 354 l 139 354 l 139 392 b 189 453 139 435 158 453 b 239 382 219 453 239 438 l 239 342 b 181 275 239 293 217 275 l 143 275 l 143 188 l 176 188 b 239 110 219 188 239 168 l 239 54 b 189 -17 239 -1 219 -17 b 139 44 158 -17 139 1 l 139 103 l 47 103 l 47 51 b 192 -104 47 -49 96 -104 z "},"₄":{"ha":392,"x_min":0,"x_max":0,"o":"m 217 -90 l 314 -90 l 314 21 l 360 21 l 360 108 l 314 108 l 314 526 l 208 526 l 32 108 l 32 21 l 217 21 z m 119 108 l 215 351 l 218 351 l 218 108 z "},"₅":{"ha":392,"x_min":0,"x_max":0,"o":"m 197 -104 b 342 51 293 -104 342 -47 l 342 193 b 235 335 342 283 306 335 b 151 289 196 335 168 318 l 149 289 l 156 439 l 326 439 l 326 526 l 71 526 l 53 172 l 144 172 l 144 185 b 194 246 144 229 164 246 b 244 185 225 246 244 229 l 244 46 b 194 -14 244 1 225 -14 b 144 46 164 -14 144 1 l 144 86 l 53 86 l 53 51 b 197 -104 53 -47 101 -104 z "},"₆":{"ha":392,"x_min":0,"x_max":0,"o":"m 199 -104 b 346 51 294 -104 346 -47 l 346 161 b 239 301 346 251 310 301 b 151 249 194 301 168 283 l 149 249 l 149 376 b 203 453 149 436 168 453 b 253 392 233 453 253 436 l 253 376 l 344 376 l 344 385 b 200 540 344 483 294 540 b 51 381 99 540 51 483 l 51 51 b 199 -104 51 -47 103 -104 z m 199 -17 b 149 43 168 -17 149 -1 l 149 153 b 199 214 149 197 168 214 b 249 153 229 214 249 197 l 249 43 b 199 -17 249 -1 229 -17 z "},"₇":{"ha":392,"x_min":0,"x_max":0,"o":"m 89 -90 l 186 -90 l 340 442 l 340 526 l 49 526 l 49 439 l 246 439 z "},"₈":{"ha":392,"x_min":0,"x_max":0,"o":"m 196 -104 b 347 51 293 -104 347 -47 l 347 100 b 288 228 347 160 329 204 l 288 231 b 347 353 328 253 347 293 l 347 385 b 196 540 347 483 293 540 b 44 385 99 540 44 483 l 44 353 b 104 231 44 293 64 253 l 104 228 b 44 100 63 204 44 160 l 44 51 b 196 -104 44 -47 99 -104 z m 196 275 b 142 340 160 275 142 297 l 142 388 b 196 453 142 431 160 453 b 250 388 232 453 250 431 l 250 340 b 196 275 250 297 232 275 z m 196 -17 b 142 53 160 -17 142 6 l 142 118 b 196 188 142 165 160 188 b 250 118 232 188 250 165 l 250 53 b 196 -17 250 6 232 -17 z "},"₉":{"ha":392,"x_min":0,"x_max":0,"o":"m 192 -104 b 340 56 293 -104 340 -47 l 340 385 b 193 540 340 483 289 540 b 46 385 97 540 46 483 l 46 275 b 153 135 46 185 82 135 b 240 188 197 135 224 153 l 243 188 l 243 60 b 189 -17 243 0 224 -17 b 139 44 158 -17 139 0 l 139 60 l 47 60 l 47 51 b 192 -104 47 -47 97 -104 z m 193 222 b 143 283 163 222 143 239 l 143 393 b 193 453 143 438 163 453 b 243 393 224 453 243 438 l 243 283 b 193 222 243 239 224 222 z "},"⁰":{"ha":392,"x_min":0,"x_max":0,"o":"m 196 474 b 343 629 292 474 343 529 l 343 963 b 196 1118 343 1063 292 1118 b 49 963 100 1118 49 1063 l 49 629 b 196 474 49 529 100 474 z m 196 561 b 146 622 164 561 146 579 l 146 969 b 196 1031 146 1013 164 1031 b 246 969 226 1031 246 1013 l 246 622 b 196 561 246 579 226 561 z "},"¹":{"ha":392,"x_min":0,"x_max":0,"o":"m 183 488 l 281 488 l 281 1104 l 217 1104 b 81 1026 192 1044 161 1026 l 81 958 l 183 958 z "},"²":{"ha":392,"x_min":0,"x_max":0,"o":"m 53 488 l 333 488 l 333 575 l 149 575 l 149 592 b 222 731 149 636 163 667 b 342 968 313 826 342 890 b 197 1118 342 1064 292 1118 b 53 964 103 1118 53 1064 l 53 913 l 144 913 l 144 969 b 194 1031 144 1010 161 1031 b 244 965 229 1031 244 1010 b 149 778 244 901 221 853 b 53 557 75 700 53 646 z "},"³":{"ha":392,"x_min":0,"x_max":0,"o":"m 192 474 b 336 629 288 474 336 529 l 336 681 b 268 810 336 743 317 789 l 268 813 b 336 936 315 833 336 872 l 336 963 b 192 1118 336 1063 288 1118 b 47 963 96 1118 47 1063 l 47 932 l 139 932 l 139 969 b 189 1031 139 1013 158 1031 b 239 960 219 1031 239 1015 l 239 919 b 181 853 239 871 217 853 l 143 853 l 143 765 l 176 765 b 239 688 219 765 239 746 l 239 632 b 189 561 239 576 219 561 b 139 622 158 561 139 579 l 139 681 l 47 681 l 47 629 b 192 474 47 529 96 474 z "},"⁴":{"ha":392,"x_min":0,"x_max":0,"o":"m 217 488 l 314 488 l 314 599 l 360 599 l 360 686 l 314 686 l 314 1104 l 208 1104 l 32 686 l 32 599 l 217 599 z m 119 686 l 215 929 l 218 929 l 218 686 z "},"⁵":{"ha":392,"x_min":0,"x_max":0,"o":"m 197 474 b 342 629 293 474 342 531 l 342 771 b 235 913 342 861 306 913 b 151 867 196 913 168 896 l 149 867 l 156 1017 l 326 1017 l 326 1104 l 71 1104 l 53 750 l 144 750 l 144 763 b 194 824 144 807 164 824 b 244 763 225 824 244 807 l 244 624 b 194 564 244 579 225 564 b 144 624 164 564 144 579 l 144 664 l 53 664 l 53 629 b 197 474 53 531 101 474 z "},"⁶":{"ha":392,"x_min":0,"x_max":0,"o":"m 199 474 b 346 629 294 474 346 531 l 346 739 b 239 879 346 829 310 879 b 151 826 194 879 168 861 l 149 826 l 149 954 b 203 1031 149 1014 168 1031 b 253 969 233 1031 253 1014 l 253 954 l 344 954 l 344 963 b 200 1118 344 1061 294 1118 b 51 958 99 1118 51 1061 l 51 629 b 199 474 51 531 103 474 z m 199 561 b 149 621 168 561 149 576 l 149 731 b 199 792 149 775 168 792 b 249 731 229 792 249 775 l 249 621 b 199 561 249 576 229 561 z "},"⁷":{"ha":392,"x_min":0,"x_max":0,"o":"m 89 488 l 186 488 l 340 1019 l 340 1104 l 49 1104 l 49 1017 l 246 1017 z "},"⁸":{"ha":392,"x_min":0,"x_max":0,"o":"m 196 474 b 347 629 293 474 347 531 l 347 678 b 288 806 347 738 329 782 l 288 808 b 347 931 328 831 347 871 l 347 963 b 196 1118 347 1061 293 1118 b 44 963 99 1118 44 1061 l 44 931 b 104 808 44 871 64 831 l 104 806 b 44 678 63 782 44 738 l 44 629 b 196 474 44 531 99 474 z m 196 853 b 142 918 160 853 142 875 l 142 965 b 196 1031 142 1008 160 1031 b 250 965 232 1031 250 1008 l 250 918 b 196 853 250 875 232 853 z m 196 561 b 142 631 160 561 142 583 l 142 696 b 196 765 142 743 160 765 b 250 696 232 765 250 743 l 250 631 b 196 561 250 583 232 561 z "},"⁹":{"ha":392,"x_min":0,"x_max":0,"o":"m 192 474 b 340 633 293 474 340 531 l 340 963 b 193 1118 340 1061 289 1118 b 46 963 97 1118 46 1061 l 46 853 b 153 713 46 763 82 713 b 240 765 197 713 224 731 l 243 765 l 243 638 b 189 561 243 578 224 561 b 139 622 158 561 139 578 l 139 638 l 47 638 l 47 629 b 192 474 47 531 97 474 z m 193 800 b 143 861 163 800 143 817 l 143 971 b 193 1031 143 1015 163 1031 b 243 971 224 1031 243 1015 l 243 861 b 193 800 243 817 224 800 z "},"⁄":{"ha":124,"x_min":0,"x_max":0,"o":"m -175 0 l -78 0 l 299 972 l 201 972 z "},"½":{"ha":907,"x_min":0,"x_max":0,"o":"m 183 356 l 281 356 l 281 972 l 217 972 b 81 894 192 913 161 894 l 81 826 l 183 826 z m 217 0 l 314 0 l 690 972 l 593 972 z m 568 0 l 849 0 l 849 88 l 664 88 l 664 104 b 738 243 664 149 678 179 b 857 481 828 339 857 403 b 713 631 857 576 807 631 b 568 476 618 631 568 576 l 568 425 l 660 425 l 660 482 b 710 543 660 522 676 543 b 760 478 744 543 760 522 b 664 290 760 414 736 365 b 568 69 590 213 568 158 z "},"⅓":{"ha":907,"x_min":0,"x_max":0,"o":"m 183 356 l 281 356 l 281 972 l 217 972 b 81 894 192 913 161 894 l 81 826 l 183 826 z m 217 0 l 314 0 l 690 972 l 593 972 z m 707 -14 b 851 142 803 -14 851 42 l 851 193 b 783 322 851 256 832 301 l 783 325 b 851 449 831 346 851 385 l 851 475 b 707 631 851 575 803 631 b 563 475 611 631 563 575 l 563 444 l 654 444 l 654 482 b 704 543 654 525 674 543 b 754 472 735 543 754 528 l 754 432 b 696 365 754 383 732 365 l 658 365 l 658 278 l 692 278 b 754 200 735 278 754 258 l 754 144 b 704 74 754 89 735 74 b 654 135 674 74 654 92 l 654 193 l 563 193 l 563 142 b 707 -14 563 42 611 -14 z "},"⅔":{"ha":907,"x_min":0,"x_max":0,"o":"m 53 356 l 333 356 l 333 443 l 149 443 l 149 460 b 222 599 149 504 163 535 b 342 836 313 694 342 758 b 197 986 342 932 292 986 b 53 832 103 986 53 932 l 53 781 l 144 781 l 144 838 b 194 899 144 878 161 899 b 244 833 229 899 244 878 b 149 646 244 769 221 721 b 53 425 75 568 53 514 z m 217 0 l 314 0 l 690 972 l 593 972 z m 707 -14 b 851 142 803 -14 851 42 l 851 193 b 783 322 851 256 832 301 l 783 325 b 851 449 831 346 851 385 l 851 475 b 707 631 851 575 803 631 b 563 475 611 631 563 575 l 563 444 l 654 444 l 654 482 b 704 543 654 525 674 543 b 754 472 735 543 754 528 l 754 432 b 696 365 754 383 732 365 l 658 365 l 658 278 l 692 278 b 754 200 735 278 754 258 l 754 144 b 704 74 754 89 735 74 b 654 135 674 74 654 92 l 654 193 l 563 193 l 563 142 b 707 -14 563 42 611 -14 z "},"¼":{"ha":907,"x_min":0,"x_max":0,"o":"m 183 356 l 281 356 l 281 972 l 217 972 b 81 894 192 913 161 894 l 81 826 l 183 826 z m 217 0 l 314 0 l 690 972 l 593 972 z m 732 0 l 829 0 l 829 111 l 875 111 l 875 199 l 829 199 l 829 617 l 724 617 l 547 199 l 547 111 l 732 111 z m 635 199 l 731 442 l 733 442 l 733 199 z "},"¾":{"ha":907,"x_min":0,"x_max":0,"o":"m 192 342 b 336 497 288 342 336 397 l 336 549 b 268 678 336 611 317 657 l 268 681 b 336 804 315 701 336 740 l 336 831 b 192 986 336 931 288 986 b 47 831 96 986 47 931 l 47 800 l 139 800 l 139 838 b 189 899 139 881 158 899 b 239 828 219 899 239 883 l 239 788 b 181 721 239 739 217 721 l 143 721 l 143 633 l 176 633 b 239 556 219 633 239 614 l 239 500 b 189 429 239 444 219 429 b 139 490 158 429 139 447 l 139 549 l 47 549 l 47 497 b 192 342 47 397 96 342 z m 217 0 l 314 0 l 690 972 l 593 972 z m 732 0 l 829 0 l 829 111 l 875 111 l 875 199 l 829 199 l 829 617 l 724 617 l 547 199 l 547 111 l 732 111 z m 635 199 l 731 442 l 733 442 l 733 199 z "},"⅛":{"ha":907,"x_min":0,"x_max":0,"o":"m 183 356 l 281 356 l 281 972 l 217 972 b 81 894 192 913 161 894 l 81 826 l 183 826 z m 217 0 l 314 0 l 690 972 l 593 972 z m 711 -14 b 863 142 808 -14 863 43 l 863 190 b 803 318 863 250 844 294 l 803 321 b 863 443 843 343 863 383 l 863 475 b 711 631 863 574 808 631 b 560 475 614 631 560 574 l 560 443 b 619 321 560 383 579 343 l 619 318 b 560 190 578 294 560 250 l 560 142 b 711 -14 560 43 614 -14 z m 711 365 b 657 431 675 365 657 388 l 657 478 b 711 543 657 521 675 543 b 765 478 747 543 765 521 l 765 431 b 711 365 765 388 747 365 z m 711 74 b 657 143 675 74 657 96 l 657 208 b 711 278 657 256 675 278 b 765 208 747 278 765 256 l 765 143 b 711 74 765 96 747 74 z "},"⅜":{"ha":907,"x_min":0,"x_max":0,"o":"m 192 342 b 336 497 288 342 336 397 l 336 549 b 268 678 336 611 317 657 l 268 681 b 336 804 315 701 336 740 l 336 831 b 192 986 336 931 288 986 b 47 831 96 986 47 931 l 47 800 l 139 800 l 139 838 b 189 899 139 881 158 899 b 239 828 219 899 239 883 l 239 788 b 181 721 239 739 217 721 l 143 721 l 143 633 l 176 633 b 239 556 219 633 239 614 l 239 500 b 189 429 239 444 219 429 b 139 490 158 429 139 447 l 139 549 l 47 549 l 47 497 b 192 342 47 397 96 342 z m 217 0 l 314 0 l 690 972 l 593 972 z m 711 -14 b 863 142 808 -14 863 43 l 863 190 b 803 318 863 250 844 294 l 803 321 b 863 443 843 343 863 383 l 863 475 b 711 631 863 574 808 631 b 560 475 614 631 560 574 l 560 443 b 619 321 560 383 579 343 l 619 318 b 560 190 578 294 560 250 l 560 142 b 711 -14 560 43 614 -14 z m 711 365 b 657 431 675 365 657 388 l 657 478 b 711 543 657 521 675 543 b 765 478 747 543 765 521 l 765 431 b 711 365 765 388 747 365 z m 711 74 b 657 143 675 74 657 96 l 657 208 b 711 278 657 256 675 278 b 765 208 747 278 765 256 l 765 143 b 711 74 765 96 747 74 z "},"⅝":{"ha":907,"x_min":0,"x_max":0,"o":"m 197 342 b 342 497 293 342 342 399 l 342 639 b 235 781 342 729 306 781 b 151 735 196 781 168 764 l 149 735 l 156 885 l 326 885 l 326 972 l 71 972 l 53 618 l 144 618 l 144 631 b 194 692 144 675 164 692 b 244 631 225 692 244 675 l 244 492 b 194 432 244 447 225 432 b 144 492 164 432 144 447 l 144 532 l 53 532 l 53 497 b 197 342 53 399 101 342 z m 217 0 l 314 0 l 690 972 l 593 972 z m 711 -14 b 863 142 808 -14 863 43 l 863 190 b 803 318 863 250 844 294 l 803 321 b 863 443 843 343 863 383 l 863 475 b 711 631 863 574 808 631 b 560 475 614 631 560 574 l 560 443 b 619 321 560 383 579 343 l 619 318 b 560 190 578 294 560 250 l 560 142 b 711 -14 560 43 614 -14 z m 711 365 b 657 431 675 365 657 388 l 657 478 b 711 543 657 521 675 543 b 765 478 747 543 765 521 l 765 431 b 711 365 765 388 747 365 z m 711 74 b 657 143 675 74 657 96 l 657 208 b 711 278 657 256 675 278 b 765 208 747 278 765 256 l 765 143 b 711 74 765 96 747 74 z "},"⅞":{"ha":907,"x_min":0,"x_max":0,"o":"m 89 356 l 186 356 l 340 888 l 340 972 l 49 972 l 49 885 l 246 885 z m 217 0 l 314 0 l 690 972 l 593 972 z m 711 -14 b 863 142 808 -14 863 43 l 863 190 b 803 318 863 250 844 294 l 803 321 b 863 443 843 343 863 383 l 863 475 b 711 631 863 574 808 631 b 560 475 614 631 560 574 l 560 443 b 619 321 560 383 579 343 l 619 318 b 560 190 578 294 560 250 l 560 142 b 711 -14 560 43 614 -14 z m 711 365 b 657 431 675 365 657 388 l 657 478 b 711 543 657 521 675 543 b 765 478 747 543 765 521 l 765 431 b 711 365 765 388 747 365 z m 711 74 b 657 143 675 74 657 96 l 657 208 b 711 278 657 256 675 278 b 765 208 747 278 765 256 l 765 143 b 711 74 765 96 747 74 z "},"*":{"ha":586,"x_min":0,"x_max":0,"o":"m 186 454 l 293 642 l 400 454 l 500 528 l 353 683 l 565 729 l 526 847 l 328 753 l 356 972 l 231 972 l 258 753 l 60 847 l 21 729 l 233 683 l 86 528 z "},"\\":{"ha":540,"x_min":0,"x_max":0,"o":"m 396 0 l 528 0 l 144 972 l 13 972 z "},"·":{"ha":261,"x_min":0,"x_max":0,"o":"m 57 413 l 204 413 l 204 560 l 57 560 z "},"•":{"ha":417,"x_min":0,"x_max":0,"o":"m 208 326 b 368 486 297 326 368 397 b 208 646 368 575 297 646 b 49 486 119 646 49 575 b 208 326 49 397 119 326 z "},":":{"ha":261,"x_min":0,"x_max":0,"o":"m 57 529 l 204 529 l 204 676 l 57 676 z m 57 0 l 204 0 l 204 147 l 57 147 z "},",":{"ha":261,"x_min":0,"x_max":0,"o":"m 57 -167 l 128 -167 l 204 15 l 204 147 l 57 147 l 57 0 l 107 0 z "},"…":{"ha":694,"x_min":0,"x_max":0,"o":"m 43 0 l 190 0 l 190 147 l 43 147 z m 274 0 l 421 0 l 421 147 l 274 147 z m 504 0 l 651 0 l 651 147 l 504 147 z "},"!":{"ha":292,"x_min":0,"x_max":0,"o":"m 89 257 l 203 257 l 222 567 l 222 972 l 69 972 l 69 567 z m 72 0 l 219 0 l 219 147 l 72 147 z "},"¡":{"ha":292,"x_min":0,"x_max":0,"o":"m 72 825 l 219 825 l 219 972 l 72 972 z m 69 0 l 222 0 l 222 406 l 203 715 l 89 715 l 69 406 z "},"#":{"ha":572,"x_min":0,"x_max":0,"o":"m 61 0 l 182 0 l 211 278 l 310 278 l 281 0 l 401 0 l 431 278 l 501 278 l 513 386 l 442 386 l 468 640 l 539 640 l 550 749 l 479 749 l 503 972 l 382 972 l 358 749 l 260 749 l 283 972 l 163 972 l 139 749 l 69 749 l 58 640 l 128 640 l 101 386 l 33 386 l 22 278 l 90 278 z m 222 386 l 249 640 l 347 640 l 321 386 z "},".":{"ha":261,"x_min":0,"x_max":0,"o":"m 57 0 l 204 0 l 204 147 l 57 147 z "},"?":{"ha":504,"x_min":0,"x_max":0,"o":"m 163 257 l 296 257 l 296 310 b 375 486 296 358 315 406 b 476 742 450 586 476 657 b 250 986 476 897 399 986 b 26 742 101 986 26 897 l 26 646 l 171 646 l 171 751 b 247 847 171 821 199 847 b 324 751 296 847 324 821 b 238 521 324 678 306 618 b 163 315 178 436 163 379 z m 156 0 l 303 0 l 303 147 l 156 147 z "},"¿":{"ha":504,"x_min":0,"x_max":0,"o":"m 349 972 l 201 972 l 201 825 l 349 825 z m 342 715 l 208 715 l 208 663 b 129 486 208 614 189 567 b 28 231 54 386 28 315 b 254 -14 28 75 106 -14 b 478 231 403 -14 478 75 l 478 326 l 333 326 l 333 221 b 257 125 333 151 306 125 b 181 221 208 125 181 151 b 267 451 181 294 199 354 b 342 657 326 536 342 593 z "},"\"":{"ha":467,"x_min":0,"x_max":0,"o":"m 89 658 l 171 658 l 208 972 l 53 972 z m 294 658 l 376 658 l 414 972 l 258 972 z "},"'":{"ha":261,"x_min":0,"x_max":0,"o":"m 89 658 l 171 658 l 208 972 l 53 972 z "},";":{"ha":261,"x_min":0,"x_max":0,"o":"m 57 529 l 204 529 l 204 676 l 57 676 z m 49 -167 l 119 -167 l 204 15 l 204 147 l 57 147 l 57 0 l 107 0 z "},"/":{"ha":540,"x_min":0,"x_max":0,"o":"m 13 0 l 144 0 l 528 972 l 396 972 z "},"_":{"ha":417,"x_min":0,"x_max":0,"o":"m 0 -125 l 417 -125 l 417 -14 l 0 -14 z "},"{":{"ha":383,"x_min":0,"x_max":0,"o":"m 271 -69 l 349 -69 l 349 56 l 326 56 b 253 154 278 56 253 78 l 253 363 b 168 485 253 413 235 465 l 168 488 b 253 610 235 507 253 560 l 253 818 b 326 917 253 894 278 917 l 349 917 l 349 1042 l 271 1042 b 117 888 185 1042 117 993 l 117 632 b 29 549 117 568 99 549 l 29 424 b 117 340 99 424 117 404 l 117 85 b 271 -69 117 -21 185 -69 z "},"}":{"ha":383,"x_min":0,"x_max":0,"o":"m 35 -69 l 113 -69 b 267 85 199 -69 267 -21 l 267 340 b 354 424 267 404 285 424 l 354 549 b 267 632 285 549 267 568 l 267 888 b 113 1042 267 993 199 1042 l 35 1042 l 35 917 l 57 917 b 131 818 106 917 131 894 l 131 610 b 215 488 131 560 149 507 l 215 485 b 131 363 149 465 131 413 l 131 154 b 57 56 131 78 106 56 l 35 56 z "},"[":{"ha":383,"x_min":0,"x_max":0,"o":"m 82 -69 l 335 -69 l 335 56 l 235 56 l 235 917 l 335 917 l 335 1042 l 82 1042 z "},"]":{"ha":383,"x_min":0,"x_max":0,"o":"m 49 -69 l 301 -69 l 301 1042 l 49 1042 l 49 917 l 149 917 l 149 56 l 49 56 z "},"(":{"ha":383,"x_min":0,"x_max":0,"o":"m 288 -69 l 335 -69 l 335 56 l 297 56 b 226 143 249 56 226 74 l 226 829 b 297 917 226 899 249 917 l 335 917 l 335 1042 l 288 1042 b 74 829 135 1042 74 985 l 74 143 b 288 -69 74 -12 135 -69 z "},")":{"ha":383,"x_min":0,"x_max":0,"o":"m 49 -69 l 96 -69 b 310 143 249 -69 310 -12 l 310 829 b 96 1042 310 985 249 1042 l 49 1042 l 49 917 l 86 917 b 157 829 135 917 157 899 l 157 143 b 86 56 157 74 135 56 l 49 56 z "},"—":{"ha":694,"x_min":0,"x_max":0,"o":"m 0 424 l 694 424 l 694 549 l 0 549 z "},"–":{"ha":417,"x_min":0,"x_max":0,"o":"m 0 424 l 417 424 l 417 549 l 0 549 z "},"‒":{"ha":556,"x_min":0,"x_max":0,"o":"m 0 424 l 556 424 l 556 549 l 0 549 z "},"-":{"ha":375,"x_min":0,"x_max":0,"o":"m 35 417 l 340 417 l 340 556 l 35 556 z "},"­":{"ha":375,"x_min":0,"x_max":0,"o":"m 35 417 l 340 417 l 340 556 l 35 556 z "},"«":{"ha":467,"x_min":0,"x_max":0,"o":"m 126 319 l 238 319 l 158 481 l 238 633 l 126 633 l 19 481 z m 332 319 l 443 319 l 365 481 l 443 633 l 332 633 l 226 481 z "},"»":{"ha":465,"x_min":0,"x_max":0,"o":"m 135 319 l 240 481 l 135 633 l 24 633 l 101 481 l 24 319 z m 340 319 l 446 481 l 340 633 l 229 633 l 307 481 l 229 319 z "},"‹":{"ha":261,"x_min":0,"x_max":0,"o":"m 126 319 l 238 319 l 158 481 l 238 633 l 126 633 l 19 481 z "},"›":{"ha":261,"x_min":0,"x_max":0,"o":"m 135 319 l 242 481 l 135 633 l 24 633 l 103 481 l 24 319 z "},"„":{"ha":467,"x_min":0,"x_max":0,"o":"m 49 -167 l 119 -167 l 204 15 l 204 147 l 57 147 l 57 0 l 107 0 z m 254 -167 l 325 -167 l 410 15 l 410 147 l 263 147 l 263 0 l 313 0 z "},"“":{"ha":467,"x_min":0,"x_max":0,"o":"m 57 658 l 204 658 l 204 806 l 154 806 l 213 972 l 142 972 l 57 790 z m 263 658 l 410 658 l 410 806 l 360 806 l 418 972 l 347 972 l 263 790 z "},"”":{"ha":467,"x_min":0,"x_max":0,"o":"m 49 658 l 119 658 l 204 840 l 204 972 l 57 972 l 57 825 l 107 825 z m 254 658 l 325 658 l 410 840 l 410 972 l 263 972 l 263 825 l 313 825 z "},"‘":{"ha":261,"x_min":0,"x_max":0,"o":"m 57 658 l 204 658 l 204 806 l 154 806 l 213 972 l 142 972 l 57 790 z "},"’":{"ha":261,"x_min":0,"x_max":0,"o":"m 49 658 l 119 658 l 204 840 l 204 972 l 57 972 l 57 825 l 107 825 z "},"‚":{"ha":261,"x_min":0,"x_max":0,"o":"m 58 -167 l 129 -167 l 206 15 l 206 147 l 58 147 l 58 0 l 108 0 z "}," ":{"ha":694,"x_min":0,"x_max":0,"o":""}," ":{"ha":417,"x_min":0,"x_max":0,"o":""}," ":{"ha":556,"x_min":0,"x_max":0,"o":""}," ":{"ha":261,"x_min":0,"x_max":0,"o":""}," ":{"ha":222,"x_min":0,"x_max":0,"o":""},"​":{"ha":0,"x_min":0,"x_max":0,"o":""},"\r":{"ha":222,"x_min":0,"x_max":0,"o":""},"¢":{"ha":556,"x_min":0,"x_max":0,"o":"m 508 617 l 508 661 b 344 894 508 789 451 872 l 344 986 l 219 986 l 219 893 b 58 661 114 871 58 788 l 58 311 b 219 79 58 185 114 101 l 219 -28 l 344 -28 l 344 78 b 508 311 451 100 508 183 l 508 390 l 364 390 l 364 300 b 288 211 364 236 333 211 b 211 300 242 211 211 236 l 211 671 b 288 761 211 735 242 761 b 364 671 333 761 364 735 l 364 617 z "},"¤":{"ha":556,"x_min":0,"x_max":0,"o":"m 111 251 l 185 333 b 278 307 211 317 243 307 b 371 333 313 307 344 317 l 444 251 l 513 319 l 432 393 b 457 486 449 419 457 453 b 432 579 457 519 449 553 l 513 653 l 444 721 l 371 639 b 278 665 344 656 313 665 b 185 639 243 665 211 656 l 111 721 l 43 653 l 124 579 b 99 486 107 553 99 519 b 124 393 99 453 107 419 l 43 319 z m 278 413 b 204 486 233 413 204 442 b 278 560 204 531 233 560 b 351 486 322 560 351 531 b 278 413 351 442 322 413 z "},"$":{"ha":556,"x_min":0,"x_max":0,"o":"m 215 -76 l 340 -76 l 340 21 b 506 253 449 43 506 128 b 338 540 506 364 463 440 b 207 735 235 622 207 671 b 283 818 207 792 235 818 b 360 732 332 818 360 792 l 360 694 l 504 694 l 504 722 b 340 950 504 844 449 928 l 340 1035 l 215 1035 l 215 950 b 54 725 108 926 54 843 b 222 443 54 619 97 542 b 353 243 325 363 353 313 b 274 156 353 181 322 156 b 194 240 225 156 194 181 l 194 314 l 50 314 l 50 250 b 215 21 50 128 106 43 z "},"€":{"ha":556,"x_min":0,"x_max":0,"o":"m 294 -14 b 518 231 444 -14 518 75 l 518 311 l 374 311 l 374 219 b 299 125 374 150 347 125 b 224 219 250 125 224 150 l 224 389 l 438 389 l 438 465 l 224 465 l 224 542 l 438 542 l 438 618 l 224 618 l 224 751 b 299 847 224 821 250 847 b 374 751 347 847 374 821 l 374 696 l 518 696 l 518 742 b 294 986 518 897 444 986 b 71 742 144 986 71 897 l 71 618 l 32 618 l 32 542 l 71 542 l 71 465 l 32 465 l 32 389 l 71 389 l 71 231 b 294 -14 71 75 144 -14 z "},"ƒ":{"ha":556,"x_min":0,"x_max":0,"o":"m 124 -76 l 210 -76 l 210 35 l 290 35 l 290 -76 l 376 -76 l 376 44 b 526 265 475 69 526 144 l 526 296 b 413 503 526 399 494 471 l 413 506 b 511 700 481 538 511 600 l 511 721 b 376 926 511 831 469 901 l 376 1035 l 290 1035 l 290 938 l 210 938 l 210 1035 l 124 1035 l 124 938 l 26 938 l 26 799 l 82 799 l 82 174 l 26 174 l 26 35 l 124 35 z m 235 563 l 235 799 l 281 799 b 358 699 335 799 358 768 l 358 665 b 267 563 358 588 324 563 z m 235 174 l 235 424 l 275 424 b 374 306 344 424 374 396 l 374 269 b 294 174 374 197 346 174 z "},"₹":{"ha":556,"x_min":0,"x_max":0,"o":"m 340 0 l 525 0 l 222 435 b 435 644 313 435 424 510 l 517 644 l 517 763 l 435 763 b 400 854 429 797 418 828 l 517 854 l 517 972 l 39 972 l 39 854 l 167 854 b 283 763 243 854 283 832 l 39 763 l 39 644 l 283 644 b 167 553 283 575 243 553 l 39 553 l 39 435 z "},"£":{"ha":556,"x_min":0,"x_max":0,"o":"m 49 0 l 503 0 l 503 139 l 224 139 b 319 375 306 213 319 293 l 463 375 l 463 493 l 293 493 b 215 751 272 551 215 642 b 292 847 215 821 243 847 b 368 751 340 847 368 821 l 368 685 l 513 685 l 513 742 b 288 986 513 897 436 986 b 63 765 139 986 63 893 b 151 493 63 649 100 586 l 49 493 l 49 375 l 176 375 b 181 331 179 361 181 346 b 49 131 181 250 133 169 z "},"¥":{"ha":556,"x_min":0,"x_max":0,"o":"m 201 0 l 354 0 l 354 156 l 483 156 l 483 251 l 354 251 l 354 353 l 483 353 l 483 449 l 364 449 l 540 972 l 392 972 l 286 610 l 283 610 l 178 972 l 15 972 l 192 449 l 78 449 l 78 353 l 201 353 l 201 251 l 78 251 l 78 156 l 201 156 z "},"∙":{"ha":306,"x_min":0,"x_max":0,"o":"m 64 397 l 242 397 l 242 575 l 64 575 z "},"∕":{"ha":556,"x_min":0,"x_max":0,"o":"m 24 0 l 140 0 l 532 972 l 415 972 z "},"+":{"ha":556,"x_min":0,"x_max":0,"o":"m 224 242 l 332 242 l 332 432 l 518 432 l 518 540 l 332 540 l 332 728 l 224 728 l 224 540 l 38 540 l 38 432 l 224 432 z "},"−":{"ha":556,"x_min":0,"x_max":0,"o":"m 38 432 l 518 432 l 518 540 l 38 540 z "},"×":{"ha":556,"x_min":0,"x_max":0,"o":"m 129 260 l 278 413 l 425 260 l 499 333 l 351 486 l 499 639 l 425 713 l 278 560 l 131 711 l 57 638 l 203 486 l 56 333 z "},"÷":{"ha":556,"x_min":0,"x_max":0,"o":"m 204 624 l 351 624 l 351 771 l 204 771 z m 38 432 l 518 432 l 518 540 l 38 540 z m 204 200 l 351 200 l 351 347 l 204 347 z "},"=":{"ha":556,"x_min":0,"x_max":0,"o":"m 51 544 l 504 544 l 504 653 l 51 653 z m 51 319 l 504 319 l 504 428 l 51 428 z "},"≠":{"ha":556,"x_min":0,"x_max":0,"o":"m 51 194 l 160 194 l 233 319 l 504 319 l 504 428 l 297 428 l 367 544 l 504 544 l 504 653 l 431 653 l 504 778 l 396 778 l 322 653 l 51 653 l 51 544 l 258 544 l 189 428 l 51 428 l 51 319 l 125 319 z "},">":{"ha":556,"x_min":0,"x_max":0,"o":"m 75 251 l 500 435 l 500 538 l 75 721 l 75 610 l 368 486 l 75 363 z "},"<":{"ha":556,"x_min":0,"x_max":0,"o":"m 481 251 l 481 363 l 188 486 l 481 610 l 481 721 l 56 538 l 56 435 z "},"≥":{"ha":556,"x_min":0,"x_max":0,"o":"m 71 349 l 496 497 l 496 600 l 71 749 l 71 638 l 346 549 l 71 460 z m 71 214 l 496 214 l 496 322 l 71 322 z "},"≤":{"ha":556,"x_min":0,"x_max":0,"o":"m 485 749 l 60 600 l 60 497 l 485 349 l 485 460 l 210 549 l 485 638 z m 60 214 l 485 214 l 485 322 l 60 322 z "},"±":{"ha":556,"x_min":0,"x_max":0,"o":"m 50 228 l 503 228 l 503 336 l 331 336 l 331 489 l 503 489 l 503 597 l 331 597 l 331 756 l 222 756 l 222 597 l 50 597 l 50 489 l 222 489 l 222 336 l 50 336 z "},"≈":{"ha":556,"x_min":0,"x_max":0,"o":"m 96 504 b 186 588 133 560 151 588 b 268 549 210 588 229 574 b 371 508 318 517 340 508 b 539 647 443 508 486 557 l 460 707 b 369 624 422 651 404 624 b 288 663 346 624 326 638 b 185 703 238 694 215 703 b 17 564 113 703 69 654 z m 96 265 b 186 349 133 321 151 349 b 268 310 210 349 229 335 b 371 269 318 278 340 269 b 539 408 443 269 486 318 l 460 468 b 369 385 422 413 404 385 b 288 424 346 385 326 399 b 185 464 238 456 215 464 b 17 325 113 464 69 415 z "},"~":{"ha":556,"x_min":0,"x_max":0,"o":"m 96 385 b 186 468 133 440 151 468 b 268 429 210 468 229 454 b 371 389 318 397 340 389 b 539 528 443 389 486 438 l 460 588 b 369 504 422 532 404 504 b 288 543 346 504 326 518 b 185 583 238 575 215 583 b 17 444 113 583 69 535 z "},"¬":{"ha":556,"x_min":0,"x_max":0,"o":"m 403 242 l 511 242 l 511 540 l 31 540 l 31 432 l 403 432 z "},"∞":{"ha":893,"x_min":0,"x_max":0,"o":"m 246 251 b 446 379 344 251 403 308 l 453 379 b 650 251 504 296 560 251 b 857 485 794 251 857 365 b 647 721 857 603 796 721 b 446 593 549 721 490 664 l 440 593 b 243 721 389 676 333 721 b 36 488 99 721 36 607 b 246 251 36 369 97 251 z m 254 364 b 154 488 190 364 154 419 b 254 611 154 557 193 611 b 386 493 326 611 354 539 l 372 464 b 254 364 349 414 319 364 z m 639 361 b 504 479 567 361 539 433 l 521 508 b 639 610 546 553 574 610 b 739 485 703 610 739 553 b 639 361 739 415 700 361 z "},"∅":{"ha":1019,"x_min":0,"x_max":0,"o":"m 169 31 l 249 114 b 510 31 321 61 410 31 b 944 479 760 31 944 222 b 860 753 944 585 914 679 l 944 842 l 850 928 l 771 844 b 510 928 699 897 610 928 b 75 479 260 928 75 736 b 160 206 75 374 106 279 l 75 117 z m 261 311 b 221 479 235 358 221 417 b 510 797 221 664 344 797 b 675 744 572 797 629 778 z m 510 161 b 344 214 447 161 390 181 l 758 647 b 799 479 785 600 799 542 b 510 161 799 294 675 161 z "},"∫":{"ha":556,"x_min":0,"x_max":0,"o":"m 167 -236 b 353 -39 283 -236 353 -168 l 353 835 b 415 904 353 882 374 904 b 478 890 443 904 463 899 l 478 1028 b 386 1042 449 1039 419 1042 b 200 844 269 1042 200 974 l 200 -29 b 138 -99 200 -76 179 -99 b 75 -83 110 -99 92 -92 l 75 -222 b 167 -236 104 -233 133 -236 z "},"Ω":{"ha":558,"x_min":0,"x_max":0,"o":"m 47 0 l 257 0 l 257 139 b 200 404 211 219 200 289 l 200 751 b 279 847 200 821 231 847 b 358 751 328 847 358 821 l 358 404 b 301 139 358 289 347 219 l 301 0 l 511 0 l 511 139 l 400 139 l 400 142 b 511 469 478 228 511 315 l 511 742 b 279 986 511 897 429 986 b 47 742 129 986 47 897 l 47 469 b 158 142 47 314 81 228 l 158 139 l 47 139 z "},"∆":{"ha":557,"x_min":0,"x_max":0,"o":"m 17 0 l 540 0 l 382 972 l 175 972 z m 178 139 l 271 789 l 274 789 l 367 139 z "},"∏":{"ha":646,"x_min":0,"x_max":0,"o":"m 68 -222 l 221 -222 l 221 833 l 425 833 l 425 -222 l 578 -222 l 578 972 l 68 972 z "},"∑":{"ha":571,"x_min":0,"x_max":0,"o":"m 35 -222 l 538 -222 l 538 -83 l 199 -83 l 444 375 l 199 833 l 538 833 l 538 972 l 35 972 l 35 836 l 292 376 l 35 -86 z "},"√":{"ha":660,"x_min":0,"x_max":0,"o":"m 231 -90 l 385 -90 l 639 972 l 522 972 l 322 114 l 232 540 l 22 540 l 22 432 l 115 432 z "},"µ":{"ha":563,"x_min":0,"x_max":0,"o":"m 57 -222 l 210 -222 l 210 -6 l 243 -6 b 376 72 300 -6 349 24 l 376 0 l 515 0 l 515 694 l 363 694 l 363 224 b 282 128 363 154 328 128 b 210 207 236 128 210 151 l 210 694 l 57 694 z "},"∂":{"ha":594,"x_min":0,"x_max":0,"o":"m 276 -14 b 508 224 419 -14 497 72 l 543 725 b 544 788 544 747 544 768 b 325 986 544 903 465 986 b 92 749 178 986 106 903 l 90 733 l 232 729 l 233 754 b 315 847 238 822 271 847 b 393 747 364 847 393 822 b 392 719 393 740 393 735 l 378 539 l 375 539 b 236 628 353 597 308 628 b 60 413 129 628 69 553 l 47 243 b 46 211 46 226 46 219 b 276 -14 46 65 119 -14 z m 276 128 b 199 200 228 128 199 150 b 200 238 199 207 199 215 l 211 394 b 290 488 215 457 240 488 b 369 417 339 488 361 461 l 357 218 b 276 128 353 158 326 128 z "},"%":{"ha":818,"x_min":0,"x_max":0,"o":"m 196 432 b 343 588 292 432 343 488 l 343 831 b 196 986 343 931 292 986 b 49 831 100 986 49 931 l 49 588 b 196 432 49 488 100 432 z m 172 0 l 269 0 l 646 972 l 549 972 z m 196 519 b 146 581 164 519 146 538 l 146 838 b 196 899 146 881 164 899 b 246 838 226 899 246 881 l 246 581 b 196 519 246 538 226 519 z m 622 -14 b 769 142 718 -14 769 42 l 769 385 b 622 540 769 485 718 540 b 475 385 526 540 475 485 l 475 142 b 622 -14 475 42 526 -14 z m 622 74 b 572 135 590 74 572 92 l 572 392 b 622 453 572 435 590 453 b 672 392 653 453 672 435 l 672 135 b 622 74 672 92 653 74 z "},"‰":{"ha":1174,"x_min":0,"x_max":0,"o":"m 196 432 b 343 588 292 432 343 488 l 343 831 b 196 986 343 931 292 986 b 49 831 100 986 49 931 l 49 588 b 196 432 49 488 100 432 z m 172 0 l 269 0 l 646 972 l 549 972 z m 196 519 b 146 581 164 519 146 538 l 146 838 b 196 899 146 881 164 899 b 246 838 226 899 246 881 l 246 581 b 196 519 246 538 226 519 z m 622 -14 b 769 142 718 -14 769 42 l 769 385 b 622 540 769 485 718 540 b 475 385 526 540 475 485 l 475 142 b 622 -14 475 42 526 -14 z m 978 -14 b 1125 142 1074 -14 1125 42 l 1125 385 b 978 540 1125 485 1074 540 b 831 385 882 540 831 485 l 831 142 b 978 -14 831 42 882 -14 z m 622 74 b 572 135 590 74 572 92 l 572 392 b 622 453 572 435 590 453 b 672 392 653 453 672 435 l 672 135 b 622 74 672 92 653 74 z m 978 74 b 928 135 946 74 928 92 l 928 392 b 978 453 928 435 946 453 b 1028 392 1008 453 1028 435 l 1028 135 b 978 74 1028 92 1008 74 z "},"◊":{"ha":556,"x_min":0,"x_max":0,"o":"m 254 -14 l 301 -14 l 528 486 l 301 986 l 254 986 l 28 486 z m 278 186 l 153 486 l 278 786 l 403 486 z "},"":{"ha":881,"x_min":0,"x_max":0,"o":"m 349 61 b 665 392 533 61 665 185 l 665 475 l 849 475 l 849 686 l 665 686 l 665 847 l 449 847 l 449 686 l 367 686 b 32 374 157 686 32 556 b 349 61 32 189 160 61 z m 350 275 b 251 375 293 275 251 315 b 365 475 251 431 289 475 l 449 475 l 449 390 b 350 275 449 313 404 275 z "},"@":{"ha":967,"x_min":0,"x_max":0,"o":"m 481 -83 b 765 -6 583 -83 674 -67 l 776 128 b 489 33 679 53 592 33 b 165 396 268 33 165 172 b 542 910 165 713 294 910 b 818 617 735 910 818 790 b 707 311 818 483 785 311 b 679 338 688 311 679 319 b 681 360 679 343 679 346 l 721 747 l 592 747 l 579 668 l 576 668 b 463 753 558 722 521 753 b 296 547 365 753 311 683 l 281 407 b 278 360 279 392 278 375 b 408 193 278 254 324 193 b 539 276 469 193 511 219 l 542 276 b 663 185 547 211 592 185 b 933 619 769 185 933 286 b 547 1028 933 844 840 1028 b 35 403 204 1028 35 746 b 481 -83 35 115 168 -83 z m 475 322 b 414 393 438 322 414 344 b 415 414 414 400 414 403 l 428 532 b 507 619 435 597 464 619 b 568 558 542 619 568 600 b 567 542 568 554 568 550 l 553 410 b 475 322 546 346 517 322 z "},"&":{"ha":579,"x_min":0,"x_max":0,"o":"m 217 -14 b 356 76 285 -14 324 19 l 358 76 b 372 0 361 33 365 19 l 525 0 b 508 118 510 36 508 71 l 508 438 l 551 438 l 551 576 l 508 576 l 508 685 l 358 685 l 358 576 l 299 576 b 207 679 242 576 207 601 l 207 739 b 285 833 207 808 236 833 l 457 833 l 457 972 l 282 972 b 54 732 129 972 54 888 l 54 714 b 160 515 54 610 88 546 l 160 513 b 47 310 78 479 47 408 l 47 208 b 217 -14 47 65 104 -14 z m 274 125 b 200 215 231 125 200 146 l 200 314 b 300 438 200 404 231 438 l 358 438 l 358 213 b 274 125 350 151 319 125 z "},"¶":{"ha":624,"x_min":0,"x_max":0,"o":"m 242 -135 l 356 -135 l 356 861 l 439 861 l 439 -135 l 553 -135 l 553 972 l 292 972 b 36 732 139 972 36 888 l 36 661 b 242 424 36 522 125 424 z "},"§":{"ha":556,"x_min":0,"x_max":0,"o":"m 278 -149 b 511 58 433 -149 511 -56 b 419 243 511 132 493 190 l 419 246 b 524 433 496 289 524 360 b 317 663 524 535 479 606 b 197 772 225 694 197 724 b 281 860 197 825 225 860 b 364 767 336 860 364 819 l 364 746 l 508 746 l 508 788 b 278 986 508 901 433 986 b 44 779 122 986 44 893 b 136 593 44 706 63 646 l 136 590 b 32 404 60 549 32 478 b 239 175 32 303 76 232 b 358 65 331 143 358 114 b 275 -22 358 13 331 -22 b 192 71 219 -22 192 18 l 192 106 l 47 106 l 47 50 b 278 -149 47 -64 122 -149 z m 292 306 b 178 425 226 328 178 357 b 264 532 178 474 201 517 b 378 413 329 510 378 481 b 292 306 378 364 354 321 z "},"©":{"ha":1025,"x_min":0,"x_max":0,"o":"m 513 -14 b 996 486 790 -14 996 199 b 513 986 996 774 790 986 b 29 486 235 986 29 774 b 513 -14 29 199 235 -14 z m 513 83 b 129 486 289 83 129 251 b 513 889 129 721 289 889 b 896 486 736 889 896 721 b 513 83 896 251 736 83 z m 507 181 b 664 350 611 181 664 242 l 664 428 l 564 428 l 564 344 b 510 279 564 296 543 279 b 456 344 476 279 456 296 l 456 628 b 510 694 456 676 476 694 b 564 628 543 694 564 676 l 564 569 l 664 569 l 664 619 b 507 792 664 731 611 792 b 350 619 403 792 350 731 l 350 350 b 507 181 350 242 403 181 z "},"®":{"ha":1025,"x_min":0,"x_max":0,"o":"m 513 -14 b 996 486 790 -14 996 199 b 513 986 996 774 790 986 b 29 486 235 986 29 774 b 513 -14 29 199 235 -14 z m 513 83 b 129 486 289 83 129 251 b 513 889 129 721 289 889 b 896 486 736 889 896 721 b 513 83 896 251 736 83 z m 360 189 l 465 189 l 465 429 l 501 429 b 572 343 550 429 572 407 l 572 272 b 582 189 572 217 575 207 l 690 189 b 678 271 679 214 678 239 l 678 342 b 606 483 678 413 660 461 l 606 486 b 678 615 656 508 678 551 l 678 628 b 521 783 678 732 629 783 l 360 783 z m 465 526 l 465 686 l 515 686 b 572 615 556 686 572 664 l 572 597 b 508 526 572 543 547 526 z "},"℗":{"ha":1025,"x_min":0,"x_max":0,"o":"m 513 -14 b 996 486 790 -14 996 199 b 513 986 996 774 790 986 b 29 486 235 986 29 774 b 513 -14 29 199 235 -14 z m 513 83 b 129 486 289 83 129 251 b 513 889 129 721 289 889 b 896 486 736 889 896 721 b 513 83 896 251 736 83 z m 383 176 l 489 176 l 489 403 l 544 403 b 701 558 650 403 701 457 l 701 615 b 544 771 701 717 650 771 l 383 771 z m 489 500 l 489 674 l 539 674 b 596 603 579 674 596 651 l 596 571 b 539 500 596 522 579 500 z "},"™":{"ha":831,"x_min":0,"x_max":0,"o":"m 115 478 l 213 478 l 213 883 l 314 883 l 314 972 l 14 972 l 14 883 l 115 883 z m 372 478 l 457 478 l 457 854 l 460 854 l 535 478 l 610 478 l 685 854 l 688 854 l 688 478 l 779 478 l 779 972 l 633 972 l 578 658 l 575 658 l 518 972 l 372 972 z "},"°":{"ha":556,"x_min":0,"x_max":0,"o":"m 278 633 b 454 810 376 633 454 711 b 278 986 454 908 376 986 b 101 810 179 986 101 908 b 278 633 101 711 179 633 z m 278 738 b 206 810 238 738 206 769 b 278 883 206 850 238 883 b 351 810 318 883 351 850 b 278 738 351 769 318 738 z "},"|":{"ha":694,"x_min":0,"x_max":0,"o":"m 285 -278 l 410 -278 l 410 1111 l 285 1111 z "},"¦":{"ha":694,"x_min":0,"x_max":0,"o":"m 285 556 l 410 556 l 410 1111 l 285 1111 z m 285 -278 l 410 -278 l 410 278 l 285 278 z "},"†":{"ha":556,"x_min":0,"x_max":0,"o":"m 208 -135 l 347 -135 l 347 582 l 525 582 l 525 714 l 347 714 l 347 972 l 208 972 l 208 714 l 31 714 l 31 582 l 208 582 z "},"ℓ":{"ha":572,"x_min":0,"x_max":0,"o":"m 336 -14 b 538 186 465 -14 538 61 l 538 288 l 390 288 l 390 201 b 338 125 390 146 378 125 b 285 201 296 125 285 146 l 285 340 b 538 756 476 485 538 628 l 538 785 b 336 986 538 911 465 986 b 132 785 204 986 132 911 l 132 388 b 15 321 97 365 58 343 l 68 207 b 132 242 90 218 111 231 l 132 186 b 336 -14 132 61 204 -14 z m 285 510 l 285 772 b 338 849 285 826 296 849 b 390 772 378 849 390 826 l 390 753 b 285 510 390 678 367 596 z "},"‡":{"ha":556,"x_min":0,"x_max":0,"o":"m 208 -135 l 347 -135 l 347 124 l 525 124 l 525 256 l 347 256 l 347 582 l 525 582 l 525 714 l 347 714 l 347 972 l 208 972 l 208 714 l 31 714 l 31 582 l 208 582 l 208 256 l 31 256 l 31 124 l 208 124 z "},"℮":{"ha":1140,"x_min":0,"x_max":0,"o":"m 574 -14 b 993 183 742 -14 894 63 l 915 183 b 576 17 832 81 711 17 b 254 167 449 17 325 67 b 239 196 247 176 239 183 l 239 464 b 250 474 239 471 243 474 l 1101 474 l 1101 486 b 574 986 1101 760 864 986 b 46 486 283 986 46 760 b 574 -14 46 211 283 -14 z m 250 501 b 239 511 243 501 239 504 l 239 778 b 254 808 239 789 246 800 b 576 956 342 896 449 956 b 894 814 699 956 817 906 b 911 783 903 804 911 794 l 911 511 b 901 501 911 504 908 501 z "},"№":{"ha":918,"x_min":0,"x_max":0,"o":"m 57 0 l 188 0 l 188 718 l 190 718 l 338 0 l 494 0 l 494 972 l 365 972 l 365 376 l 363 376 l 249 972 l 57 972 z m 721 151 b 868 306 817 151 868 208 l 868 521 b 721 675 868 618 817 675 b 574 521 625 675 574 618 l 574 306 b 721 151 574 208 625 151 z m 721 240 b 671 300 689 240 671 256 l 671 526 b 721 586 671 571 689 586 b 771 526 751 586 771 571 l 771 300 b 721 240 771 256 751 240 z m 574 0 l 868 0 l 868 94 l 574 94 z "},"^":{"ha":556,"x_min":0,"x_max":0,"o":"m 26 597 l 151 597 l 276 833 l 401 597 l 526 597 l 328 972 l 225 972 z "},"℠":{"ha":832,"x_min":0,"x_max":0,"o":"m 169 467 b 310 603 263 467 310 521 b 213 760 310 667 293 714 b 129 856 149 796 129 814 b 174 900 129 886 146 900 b 218 854 200 900 218 886 l 218 840 l 310 840 l 310 856 b 171 981 310 935 263 981 b 32 847 79 981 32 925 b 131 693 32 785 47 736 b 214 594 194 660 214 639 b 168 547 214 560 194 547 b 122 593 140 547 122 560 l 122 622 l 29 622 l 29 592 b 169 467 29 511 78 467 z m 374 478 l 458 478 l 458 854 l 461 854 l 536 478 l 611 478 l 686 854 l 689 854 l 689 478 l 781 478 l 781 972 l 635 972 l 579 658 l 576 658 l 519 972 l 374 972 z "},"̈":{"ha":0,"x_min":0,"x_max":0,"o":"m -175 1038 l -39 1038 l -39 1179 l -175 1179 z m 39 1038 l 175 1038 l 175 1179 l 39 1179 z "},"̇":{"ha":0,"x_min":0,"x_max":0,"o":"m -69 1038 l 69 1038 l 69 1179 l -69 1179 z "},"̀":{"ha":0,"x_min":0,"x_max":0,"o":"m -32 1038 l 83 1038 l -14 1197 l -181 1197 z "},"́":{"ha":0,"x_min":0,"x_max":0,"o":"m -83 1038 l 32 1038 l 181 1197 l 14 1197 z "},"̋":{"ha":0,"x_min":0,"x_max":0,"o":"m -181 1038 l -74 1038 l 71 1197 l -83 1197 z m 26 1038 l 133 1038 l 278 1197 l 124 1197 z "},"̂":{"ha":0,"x_min":0,"x_max":0,"o":"m -186 1038 l -71 1038 l 0 1114 l 71 1038 l 186 1038 l 72 1197 l -72 1197 z "},"̌":{"ha":0,"x_min":0,"x_max":0,"o":"m -72 1038 l 72 1038 l 186 1197 l 71 1197 l 0 1121 l -71 1197 l -186 1197 z "},"̆":{"ha":0,"x_min":0,"x_max":0,"o":"m -1 1032 b 164 1197 103 1032 161 1094 l 74 1197 b -1 1131 67 1144 39 1131 b -74 1197 -40 1131 -67 1144 l -164 1197 b -1 1032 -160 1094 -106 1032 z "},"̊":{"ha":0,"x_min":0,"x_max":0,"o":"m 0 1022 b 124 1144 71 1022 124 1076 b 0 1267 124 1213 71 1267 b -124 1144 -71 1267 -124 1213 b 0 1022 -124 1076 -71 1022 z m 0 1096 b -44 1144 -25 1096 -44 1115 b 0 1193 -44 1174 -25 1193 b 44 1144 25 1193 44 1174 b 0 1096 44 1115 25 1096 z "},"̃":{"ha":0,"x_min":0,"x_max":0,"o":"m -119 1032 b -64 1086 -101 1071 -86 1086 b -17 1068 -47 1086 -33 1078 b 67 1042 4 1056 29 1042 b 193 1158 119 1042 158 1081 l 119 1203 b 64 1149 101 1164 86 1149 b 17 1167 47 1149 33 1157 b -67 1193 -4 1179 -29 1193 b -193 1076 -119 1193 -158 1154 z "},"̄":{"ha":0,"x_min":0,"x_max":0,"o":"m -160 1050 l 160 1050 l 160 1158 l -160 1158 z "},"̒":{"ha":0,"x_min":0,"x_max":0,"o":"m -64 1038 l 64 1038 l 64 1165 l 14 1165 l 50 1240 l -4 1240 l -64 1151 z "},"̦":{"ha":0,"x_min":0,"x_max":0,"o":"m -50 -262 l 4 -262 l 64 -174 l 64 -60 l -64 -60 l -64 -187 l -14 -187 z "},"̧":{"ha":0,"x_min":0,"x_max":0,"o":"m -11 -204 b 131 -119 72 -204 131 -194 b 35 -54 131 -71 96 -54 l 35 19 l -33 19 l -33 -79 l -26 -79 b 25 -115 8 -79 25 -89 b -11 -149 25 -139 14 -149 b -42 -121 -26 -149 -42 -142 l -42 -110 l -144 -110 l -144 -124 b -11 -204 -144 -187 -87 -204 z "},"̨":{"ha":0,"x_min":0,"x_max":0,"o":"m 14 -204 b 108 -189 53 -204 76 -201 l 108 -111 b 58 -119 93 -115 86 -119 b 10 -81 33 -119 10 -107 b 58 6 10 -60 18 -25 l -3 6 b -108 -118 -74 -28 -108 -71 b 14 -204 -108 -175 -61 -204 z "},"̵":{"ha":0,"x_min":0,"x_max":0,"o":"m -149 421 l 149 421 l 149 551 l -149 551 z "},"̶":{"ha":0,"x_min":0,"x_max":0,"o":"m -290 424 l 290 424 l 290 549 l -290 549 z "},"̷":{"ha":0,"x_min":0,"x_max":0,"o":"m -162 -39 l 232 982 l 163 1011 l -232 -10 z "},"̸":{"ha":0,"x_min":0,"x_max":0,"o":"m -162 -36 l 246 972 l 163 1008 l -246 0 z "},"ʼ":{"ha":0,"x_min":0,"x_max":0,"o":"m -56 686 l 7 686 l 74 840 l 74 972 l -74 972 l -74 825 l -15 825 z "},"ˉ":{"ha":694,"x_min":0,"x_max":0,"o":"m 188 1050 l 507 1050 l 507 1158 l 188 1158 z "},"´":{"ha":694,"x_min":0,"x_max":0,"o":"m 264 1038 l 379 1038 l 528 1197 l 361 1197 z "},"˘":{"ha":694,"x_min":0,"x_max":0,"o":"m 346 1032 b 511 1197 450 1032 508 1094 l 421 1197 b 346 1131 414 1144 386 1131 b 274 1197 307 1131 281 1144 l 183 1197 b 346 1032 188 1094 242 1032 z "},"ˇ":{"ha":694,"x_min":0,"x_max":0,"o":"m 275 1038 l 419 1038 l 533 1197 l 418 1197 l 347 1121 l 276 1197 l 161 1197 z "},"¸":{"ha":694,"x_min":0,"x_max":0,"o":"m 343 -204 b 485 -119 426 -204 485 -194 b 389 -54 485 -71 450 -54 l 389 19 l 321 19 l 321 -79 l 328 -79 b 379 -115 363 -79 379 -89 b 343 -149 379 -139 368 -149 b 313 -121 328 -149 313 -142 l 313 -110 l 210 -110 l 210 -124 b 343 -204 210 -187 267 -204 z "},"ˆ":{"ha":694,"x_min":0,"x_max":0,"o":"m 161 1038 l 276 1038 l 347 1114 l 418 1038 l 533 1038 l 419 1197 l 275 1197 z "},"¨":{"ha":694,"x_min":0,"x_max":0,"o":"m 172 1038 l 308 1038 l 308 1179 l 172 1179 z m 386 1038 l 522 1038 l 522 1179 l 386 1179 z "},"˙":{"ha":694,"x_min":0,"x_max":0,"o":"m 278 1038 l 417 1038 l 417 1179 l 278 1179 z "},"`":{"ha":694,"x_min":0,"x_max":0,"o":"m 315 1038 l 431 1038 l 333 1197 l 167 1197 z "},"˝":{"ha":694,"x_min":0,"x_max":0,"o":"m 167 1038 l 274 1038 l 418 1197 l 264 1197 z m 374 1038 l 481 1038 l 625 1197 l 471 1197 z "},"¯":{"ha":694,"x_min":0,"x_max":0,"o":"m 188 1050 l 507 1050 l 507 1158 l 188 1158 z "},"˛":{"ha":694,"x_min":0,"x_max":0,"o":"m 361 -204 b 456 -189 400 -204 424 -201 l 456 -111 b 406 -119 440 -115 433 -119 b 357 -81 381 -119 357 -107 b 406 6 357 -60 365 -25 l 344 6 b 239 -118 274 -28 239 -71 b 361 -204 239 -175 286 -204 z "},"˚":{"ha":694,"x_min":0,"x_max":0,"o":"m 347 1022 b 471 1144 418 1022 471 1076 b 347 1267 471 1213 418 1267 b 224 1144 276 1267 224 1213 b 347 1022 224 1076 276 1022 z m 347 1096 b 303 1144 322 1096 303 1115 b 347 1193 303 1174 322 1193 b 392 1144 372 1193 392 1174 b 347 1096 392 1115 372 1096 z "},"˜":{"ha":694,"x_min":0,"x_max":0,"o":"m 228 1032 b 283 1086 246 1071 261 1086 b 331 1068 300 1086 314 1078 b 414 1042 351 1056 376 1042 b 540 1158 467 1042 506 1081 l 467 1203 b 411 1149 449 1164 433 1149 b 364 1167 394 1149 381 1157 b 281 1193 343 1179 318 1193 b 154 1076 228 1193 189 1154 z "},"₿":{"ha":556,"x_min":0,"x_max":0,"o":"m 124 -76 l 210 -76 l 210 35 l 290 35 l 290 -76 l 376 -76 l 376 44 b 526 265 475 69 526 144 l 526 296 b 413 503 526 399 494 471 l 413 506 b 511 700 481 538 511 600 l 511 721 b 376 926 511 831 469 901 l 376 1035 l 290 1035 l 290 938 l 210 938 l 210 1035 l 124 1035 l 124 938 l 26 938 l 26 799 l 82 799 l 82 174 l 26 174 l 26 35 l 124 35 z m 235 563 l 235 799 l 281 799 b 358 699 335 799 358 768 l 358 665 b 267 563 358 588 324 563 z m 235 174 l 235 424 l 275 424 b 374 306 344 424 374 396 l 374 269 b 294 174 374 197 346 174 z "},"":{"ha":694,"x_min":0,"x_max":0,"o":""},"":{"ha":694,"x_min":0,"x_max":0,"o":""},"":{"ha":694,"x_min":0,"x_max":0,"o":""}}}
